<svg width="55" height="59" viewBox="0 0 55 59" fill="none" xmlns="http://www.w3.org/2000/svg">
<path d="M39.6177 22.0396L46.2431 19.7307V31.3452L39.6177 29.1762V22.0396Z" fill="#272A2D"/>
<path d="M12.2702 24.6185C12.2702 19.7551 16.2419 15.8125 21.1412 15.8125H32.0154C36.9147 15.8125 40.8864 19.7551 40.8864 24.6185V26.5973C40.8864 31.4607 36.9147 35.4032 32.0154 35.4032H21.1412C16.2419 35.4032 12.2702 31.4607 12.2702 26.5973V24.6185Z" fill="#5A6C76"/>
<path d="M16.7811 24.3485C16.7811 22.4164 18.3589 20.8501 20.3053 20.8501H33.2742C35.2205 20.8501 36.7984 22.4164 36.7984 24.3485C36.7984 26.2805 35.2206 27.8468 33.2742 27.8468H20.3053C18.3589 27.8468 16.7811 26.2805 16.7811 24.3485Z" fill="#FF9000"/>
<path d="M16.7811 24.3485C16.7811 22.4164 18.3589 20.8501 20.3053 20.8501H23.4066C25.3529 20.8501 26.9307 22.4164 26.9307 24.3485C26.9307 26.2805 25.3529 27.8468 23.4065 27.8468H20.3053C18.3589 27.8468 16.7811 26.2805 16.7811 24.3485Z" fill="#F5C537"/>
<path d="M29.75 30.7154C29.75 29.9812 30.3496 29.3861 31.0892 29.3861H35.4592C36.1988 29.3861 36.7984 29.9812 36.7984 30.7154C36.7984 31.4496 36.1988 32.0448 35.4592 32.0448H31.0892C30.3496 32.0448 29.75 31.4496 29.75 30.7154Z" fill="#BBDCFF"/>
<path d="M47.3004 33.5841C46.7165 33.5841 46.2431 33.1142 46.2431 32.5346V18.8211C46.2431 18.2415 46.7165 17.7716 47.3004 17.7716C47.8843 17.7716 48.3576 18.2415 48.3576 18.8211V32.5346C48.3576 33.1142 47.8843 33.5841 47.3004 33.5841Z" fill="#474E54"/>
<path d="M20.8691 30.7154C20.8691 29.9812 21.4687 29.3861 22.2083 29.3861C22.9479 29.3861 23.5475 29.9812 23.5475 30.7154C23.5475 31.4496 22.9479 32.0448 22.2083 32.0448C21.4687 32.0448 20.8691 31.4496 20.8691 30.7154Z" fill="#BBDCFF"/>
<path d="M16.7811 30.7154C16.7811 29.9812 17.3807 29.3861 18.1203 29.3861C18.8599 29.3861 19.4595 29.9812 19.4595 30.7154C19.4595 31.4496 18.8599 32.0448 18.1203 32.0448C17.3807 32.0448 16.7811 31.4496 16.7811 30.7154Z" fill="#BBDCFF"/>
<path d="M29.3271 8.81582C29.3271 13.6847 25.351 17.6316 20.4462 17.6316C15.5415 17.6316 11.5654 13.6847 11.5654 8.81582C11.5654 3.94698 15.5415 0 20.4462 0C25.351 0 29.3271 3.94698 29.3271 8.81582Z" fill="#474E54"/>
<path d="M40.8864 11.0548C40.8864 14.6871 37.9201 17.6317 34.261 17.6317C30.6019 17.6317 27.6355 14.6871 27.6355 11.0548C27.6355 7.42245 30.6019 4.47788 34.261 4.47788C37.9201 4.47788 40.8864 7.42245 40.8864 11.0548Z" fill="#272A2D"/>
<path d="M24.9572 8.81583C24.9572 11.2889 22.9376 13.2937 20.4462 13.2937C17.9549 13.2937 15.9353 11.2889 15.9353 8.81583C15.9353 6.34276 17.9549 4.33795 20.4462 4.33795C22.9376 4.33795 24.9572 6.34276 24.9572 8.81583Z" fill="#898FC2"/>
<path d="M36.7984 11.0548C36.7984 12.4459 35.6623 13.5736 34.261 13.5736C32.8596 13.5736 31.7236 12.4459 31.7236 11.0548C31.7236 9.66368 32.8596 8.53597 34.261 8.53597C35.6623 8.53597 36.7984 9.66368 36.7984 11.0548Z" fill="#898FC2"/>
<path d="M0 41.0107V43.7783H4.01676V50.5714C4.01676 53.5906 5.64857 54.2196 8.03352 54.2196C9.53981 54.2196 10.1674 53.968 10.1674 53.968V51.3262C10.1674 51.3262 9.79085 51.452 9.03771 51.452C7.908 51.452 7.53143 51.0746 7.53143 49.9424V43.7783H11.7992V41.0107H0Z" fill="#FFA500"/>
<path d="M16.3181 41.0107H12.8034V54.0938H16.3181V41.0107ZM12.5524 38.1173C12.5524 39.2243 13.4561 40.1301 14.5608 40.1301C15.6654 40.1301 16.5691 39.2243 16.5691 38.1173C16.5691 37.0102 15.6654 36.1045 14.5608 36.1045C13.4561 36.1045 12.5524 37.0102 12.5524 38.1173Z" fill="#FFA500"/>
<path d="M30.6386 41.0107H27.2494V42.7719H27.1239C27.1239 42.7719 25.9942 40.6333 23.1072 40.6333C19.3414 40.6333 17.4586 43.904 17.4586 47.3006C17.4586 50.6972 19.3414 53.968 23.1072 53.968C25.8687 53.968 26.9984 52.2068 26.9984 52.2068H27.1239V52.8358C27.1239 55.1002 26.3457 56.3582 24.1113 56.3582C21.6009 56.3582 21.4753 54.4712 21.4753 54.4712H17.9607C17.9607 54.4712 18.0862 59 24.1113 59C28.6302 59 30.6386 56.3582 30.6386 52.5842V41.0107ZM27.2494 47.3006C27.2494 49.4141 26.2452 51.3262 24.1113 51.3262C21.9774 51.3262 20.9733 49.4141 20.9733 47.3006C20.9733 45.1872 21.9774 43.2751 24.1113 43.2751C26.2452 43.2751 27.2494 45.1872 27.2494 47.3006Z" fill="#FFA500"/>
<path d="M31.9017 54.0938H35.4163V46.2942H38.0523C41.6925 46.2942 42.6967 45.4137 42.6967 42.5203V41.0107H39.182V42.1429C39.182 43.7783 38.6799 43.7783 37.1737 43.7783H35.4163V41.0107H31.9017V54.0938Z" fill="#FFA500"/>
<path d="M46.9665 45.0363C47.0167 43.6273 47.8451 43.0235 49.3514 43.0235C50.7322 43.0235 51.4853 43.6273 51.4853 44.6589C51.4853 46.1181 49.4267 46.2942 47.2426 46.8478C45.0836 47.4013 43.0752 48.5083 43.0752 50.9488C43.0752 53.3642 44.8326 54.4712 47.2175 54.4712C50.5565 54.4712 51.3598 51.5778 51.3598 51.5778H51.4853V54.0938H55V45.1621C55 41.7655 52.4895 40.6333 49.3514 40.6333C46.3389 40.6333 43.6526 41.69 43.4518 45.0363H46.9665ZM51.4853 47.5019C51.4853 49.4392 50.8577 52.2068 48.4728 52.2068C47.343 52.2068 46.6401 51.5778 46.6401 50.5714C46.6401 49.4141 47.5941 48.8354 48.7238 48.5586C49.728 48.307 50.9079 48.0303 51.4853 47.5019Z" fill="#FFA500"/>
</svg>
