<svg width="84" height="84" viewBox="0 0 84 84" fill="none" xmlns="http://www.w3.org/2000/svg">
<path d="M42 82C64.0914 82 82 64.0914 82 42C82 19.9086 64.0914 2 42 2C19.9086 2 2 19.9086 2 42C2 64.0914 19.9086 82 42 82Z" fill="url(#paint0_radial_830_1266)"/>
<path d="M42 83C64.6437 83 83 64.6437 83 42C83 19.3563 64.6437 1 42 1C19.3563 1 1 19.3563 1 42C1 64.6437 19.3563 83 42 83Z" stroke="url(#paint1_radial_830_1266)" stroke-opacity="0.8" stroke-width="2"/>
<path d="M52.5 33.7001L59.4 31.3V43.5L52.5 41.2001V33.7001Z" fill="#272A2D"/>
<path d="M24.1001 36.4001C24.1001 31.3001 28.2001 27.2001 33.3001 27.2001H44.6001C49.7001 27.2001 53.8001 31.3001 53.8001 36.4001V38.5001C53.8001 43.6001 49.7001 47.7001 44.6001 47.7001H33.3001C28.2001 47.7001 24.1001 43.6001 24.1001 38.5001V36.4001Z" fill="#5A6C76"/>
<path d="M28.7998 36.1C28.7998 34.1 30.3998 32.4 32.4998 32.4H45.9998C47.9998 32.4 49.6998 34 49.6998 36.1C49.6998 38.2 48.0998 39.8 45.9998 39.8H32.3998C30.3998 39.8 28.7998 38.2 28.7998 36.1Z" fill="#FF9000"/>
<path d="M28.7998 36.1C28.7998 34.1 30.3998 32.4 32.4998 32.4H35.6998C37.6998 32.4 39.3998 34 39.3998 36.1C39.3998 38.2 37.7998 39.8 35.6998 39.8H32.4998C30.3998 39.8 28.7998 38.2 28.7998 36.1Z" fill="#F5C537"/>
<path d="M42.2998 42.8C42.2998 42 42.8998 41.4 43.6998 41.4H48.1998C48.9998 41.4 49.5998 42 49.5998 42.8C49.5998 43.6 48.9998 44.2 48.1998 44.2H43.6998C42.8998 44.2 42.2998 43.6 42.2998 42.8Z" fill="#BBDCFF"/>
<path d="M60.4999 45.8001C59.8999 45.8001 59.3999 45.3001 59.3999 44.7001V30.3001C59.3999 29.7001 59.8999 29.2001 60.4999 29.2001C61.0999 29.2001 61.5999 29.7001 61.5999 30.3001V44.7001C61.5999 45.3001 61.0999 45.8001 60.4999 45.8001Z" fill="#474E54"/>
<path d="M33 42.8C33 42 33.6 41.4 34.4 41.4C35.2 41.4 35.8 42 35.8 42.8C35.8 43.6 35.2 44.2 34.4 44.2C33.6 44.2 33 43.6 33 42.8Z" fill="#BBDCFF"/>
<path d="M28.7998 42.8C28.7998 42 29.3998 41.4 30.1998 41.4C30.9998 41.4 31.5998 42 31.5998 42.8C31.5998 43.6 30.9998 44.2 30.1998 44.2C29.3998 44.2 28.7998 43.6 28.7998 42.8Z" fill="#BBDCFF"/>
<path d="M41.7999 19.9C41.7999 25 37.6999 29.1 32.5999 29.1C27.4999 29.1 23.3999 25 23.3999 19.9C23.3999 14.8 27.4999 10.7 32.5999 10.7C37.6999 10.6 41.7999 14.7 41.7999 19.9Z" fill="#474E54"/>
<path d="M53.8 22.2C53.8 26 50.7 29.1 46.9 29.1C43.1 29.1 40 26 40 22.2C40 18.4 43.1 15.3 46.9 15.3C50.7 15.3 53.8 18.4 53.8 22.2Z" fill="#272A2D"/>
<path d="M37.2999 19.9001C37.2999 22.5001 35.1999 24.6001 32.5999 24.6001C29.9999 24.6001 27.8999 22.5001 27.8999 19.9001C27.8999 17.3001 29.9999 15.2001 32.5999 15.2001C35.1999 15.2001 37.2999 17.3001 37.2999 19.9001Z" fill="#898FC2"/>
<path d="M49.5999 22.2C49.5999 23.7 48.3999 24.8 46.9999 24.8C45.4999 24.8 44.3999 23.6 44.3999 22.2C44.3999 20.7 45.5999 19.6 46.9999 19.6C48.3999 19.6 49.5999 20.7 49.5999 22.2Z" fill="#898FC2"/>
<path d="M12.7002 54.7V56.7H15.6002V61.5999C15.6002 63.7999 16.8002 64.1999 18.5002 64.1999C19.6002 64.1999 20.0002 64 20.0002 64V62.0999C20.0002 62.0999 19.7002 62.2 19.2002 62.2C18.4002 62.2 18.1002 61.8999 18.1002 61.0999V56.7H21.1002V54.7H12.7002Z" fill="#FFA500"/>
<path d="M24.3001 54.7H21.8001V64H24.3001V54.7ZM21.6001 52.6C21.6001 53.4 22.2001 54 23.0001 54C23.8001 54 24.4001 53.4 24.4001 52.6C24.4001 51.8 23.8001 51.2 23.0001 51.2C22.2001 51.1 21.6001 51.8 21.6001 52.6Z" fill="#FFA500"/>
<path d="M34.4 54.7H32V56H31.9C31.9 56 31.1 54.5 29 54.5C26.3 54.5 25 56.8 25 59.3C25 61.8 26.3 64.1 29 64.1C31 64.1 31.8 62.8 31.8 62.8H31.9V63.3C31.9 64.9 31.3 65.8 29.8 65.8C28 65.8 27.9 64.4 27.9 64.4H25.4C25.4 64.4 25.5 67.6 29.8 67.6C33 67.6 34.4 65.7 34.4 63V54.7ZM32 59.2C32 60.7 31.3 62.1 29.8 62.1C28.3 62.1 27.6 60.7 27.6 59.2C27.6 57.7 28.3 56.3 29.8 56.3C31.3 56.3 32 57.7 32 59.2Z" fill="#FFA500"/>
<path d="M46.1003 57.5C46.1003 56.5 46.7003 56.1 47.8003 56.1C48.8003 56.1 49.3003 56.5 49.3003 57.3C49.3003 58.3 47.8003 58.5 46.3003 58.9C44.8003 59.3 43.3003 60.1 43.3003 61.8C43.3003 63.5 44.5003 64.3 46.2003 64.3C48.6003 64.3 49.1003 62.2 49.1003 62.2H49.2003V64H51.7003V57.6C51.7003 55.2 49.9003 54.4 47.7003 54.4C45.6003 54.4 43.6003 55.2 43.5003 57.6H46.1003V57.5ZM49.3003 59.3C49.3003 60.7 48.9003 62.7 47.2003 62.7C46.4003 62.7 45.9003 62.2 45.9003 61.5C45.9003 60.7 46.6003 60.3 47.4003 60.1C48.0003 59.9 48.9003 59.7 49.3003 59.3Z" fill="#FFA500"/>
<path d="M39.7003 54.7H37.8003H35.3003V64H37.8003V56.4H39.1003C40.2003 56.4 40.5003 56.3999 40.5003 57.5999V58.4H43.0003V57.2999C43.0003 55.2999 42.3003 54.7 39.7003 54.7Z" fill="#FFA500"/>
<path d="M61.3003 54.7V56.7H58.2003V61.0999C58.2003 61.8999 58.5003 62.2 59.3003 62.2C59.8003 62.2 60.1003 62.0999 60.1003 62.0999V64C60.1003 64 59.6003 64.1999 58.6003 64.1999C56.9003 64.1999 55.7003 63.6999 55.7003 61.5999V56.7H52.8003V54.7H61.3003Z" fill="#898FC2"/>
<path d="M68.1002 64H64.9002L61.7002 54.6H64.4002L66.6002 61.7L68.8002 54.6H71.4002L68.1002 64Z" fill="#898FC2"/>
<defs>
<radialGradient id="paint0_radial_830_1266" cx="0" cy="0" r="1" gradientUnits="userSpaceOnUse" gradientTransform="translate(12.5213 10.0396) rotate(46.0122) scale(100.071 69.5334)">
<stop stop-color="#0D0E0E"/>
<stop offset="1" stop-color="#1F272D"/>
</radialGradient>
<radialGradient id="paint1_radial_830_1266" cx="0" cy="0" r="1" gradientUnits="userSpaceOnUse" gradientTransform="translate(42.0077 41.9993) rotate(90) scale(40 1.621)">
<stop stop-color="#2F2F2F"/>
<stop offset="1" stop-color="#989898" stop-opacity="0.2"/>
</radialGradient>
</defs>
</svg>
