<svg width="267" height="103" viewBox="0 0 267 103" fill="none" xmlns="http://www.w3.org/2000/svg">
<rect width="267" height="103" rx="8" fill="#383B45"/>
<path d="M35.5449 32.1149V15.1934H41.9331C43.0575 15.1934 43.9162 15.2472 44.5092 15.355C45.3409 15.4935 46.0379 15.7589 46.6001 16.1514C47.1623 16.5362 47.6128 17.0787 47.9516 17.7789C48.2982 18.4792 48.4715 19.2487 48.4715 20.0874C48.4715 21.5264 48.0132 22.7461 47.0968 23.7465C46.1803 24.7391 44.5246 25.2355 42.1295 25.2355H37.786V32.1149H35.5449ZM37.786 23.2386H42.1641C43.612 23.2386 44.6401 22.9693 45.2485 22.4306C45.8569 21.8919 46.1611 21.134 46.1611 20.1567C46.1611 19.4487 45.9801 18.8447 45.6182 18.3445C45.2639 17.8366 44.7941 17.5019 44.2088 17.3403C43.8315 17.2403 43.1345 17.1902 42.1179 17.1902H37.786V23.2386Z" fill="#767B86"/>
<path d="M47.709 32.1149L54.2127 15.1934H56.6271L63.5582 32.1149H61.0052L59.0299 26.9899H51.9486L50.0887 32.1149H47.709ZM52.5955 25.1662H58.3368L56.5693 20.4799C56.0302 19.0563 55.6298 17.8866 55.3679 16.9709C55.1523 18.0559 54.8481 19.1332 54.4553 20.2029L52.5955 25.1662Z" fill="#767B86"/>
<path d="M68.3638 32.1149V24.9469L61.837 15.1934H64.5632L67.9017 20.2952C68.5178 21.2494 69.0915 22.2036 69.6229 23.1578C70.1312 22.2729 70.7473 21.2763 71.4712 20.1682L74.752 15.1934H77.3627L70.6048 24.9469V32.1149H68.3638Z" fill="#767B86"/>
<path d="M85.4259 32.1149V15.1934H91.7794C93.0732 15.1934 94.109 15.3665 94.8869 15.7128C95.6724 16.0514 96.2846 16.5785 96.7236 17.2941C97.1703 18.0021 97.3936 18.7446 97.3936 19.5219C97.3936 20.2452 97.1972 20.9262 96.8045 21.5649C96.4117 22.2036 95.8187 22.7192 95.0255 23.1116C96.0498 23.4117 96.8353 23.9234 97.3821 24.6468C97.9366 25.3701 98.2138 26.2243 98.2138 27.2093C98.2138 28.0019 98.0444 28.7406 97.7055 29.4254C97.3744 30.1026 96.9624 30.6259 96.4695 30.9952C95.9766 31.3646 95.3566 31.6455 94.6096 31.8379C93.8703 32.0225 92.9616 32.1149 91.8834 32.1149H85.4259ZM87.667 22.3036H91.3289C92.3224 22.3036 93.0347 22.2382 93.466 22.1074C94.0359 21.9381 94.4633 21.6572 94.7482 21.2648C95.0409 20.8723 95.1872 20.3799 95.1872 19.7873C95.1872 19.2256 95.0524 18.7331 94.7829 18.3099C94.5134 17.8789 94.1283 17.5865 93.6277 17.4326C93.1271 17.271 92.2684 17.1902 91.0517 17.1902H87.667V22.3036ZM87.667 30.118H91.8834C92.6073 30.118 93.1156 30.0911 93.4082 30.0372C93.9242 29.9449 94.3555 29.791 94.702 29.5755C95.0486 29.36 95.3335 29.0484 95.5569 28.6405C95.7802 28.225 95.8919 27.7479 95.8919 27.2093C95.8919 26.5783 95.7302 26.0319 95.4067 25.5702C95.0833 25.1008 94.6327 24.7738 94.0551 24.5891C93.4852 24.3967 92.6612 24.3005 91.583 24.3005H87.667V30.118Z" fill="#767B86"/>
<path d="M106.069 32.1149V24.9469L99.5423 15.1934H102.269L105.607 20.2952C106.223 21.2494 106.797 22.2036 107.328 23.1578C107.837 22.2729 108.453 21.2763 109.177 20.1682L112.457 15.1934H115.068L108.31 24.9469V32.1149H106.069Z" fill="#767B86"/>
<path d="M35.5459 64.1642V40.2323H51.7038V43.0565H38.7154V50.4679H49.9557V53.292H38.7154V64.1642H35.5459Z" fill="white"/>
<path d="M53.5441 64.1642V40.2323H64.1636C66.2984 40.2323 67.9212 40.45 69.0322 40.8853C70.1431 41.3098 71.0308 42.0661 71.6952 43.1544C72.3596 44.2427 72.6918 45.4453 72.6918 46.7622C72.6918 48.4599 72.1418 49.8911 71.0417 51.0555C69.9416 52.22 68.2425 52.9601 65.9444 53.2757C66.783 53.6784 67.4202 54.0756 67.8559 54.4674C68.7817 55.3163 69.6585 56.3774 70.4862 57.6507L74.6523 64.1642H70.6659L67.4964 59.1852C66.5706 57.7486 65.8082 56.6494 65.2092 55.8876C64.6101 55.1258 64.071 54.5925 63.5917 54.2878C63.1234 53.9831 62.6442 53.7709 62.154 53.6512C61.7946 53.575 61.2065 53.5369 60.3896 53.5369H56.7136V64.1642H53.5441ZM56.7136 50.7944H63.5264C64.975 50.7944 66.1077 50.6474 66.9246 50.3536C67.7415 50.0489 68.3623 49.57 68.7871 48.917C69.2119 48.2532 69.4243 47.5349 69.4243 46.7622C69.4243 45.6303 69.0104 44.6998 68.1826 43.9707C67.3657 43.2415 66.0696 42.8769 64.2943 42.8769H56.7136V50.7944Z" fill="white"/>
<path d="M75.398 64.1642V40.2323H92.7159V43.0565H78.5675V50.3862H91.8173V53.1941H78.5675V61.34H93.2714V64.1642H75.398Z" fill="white"/>
<path d="M95.373 64.1642V40.2323H112.691V43.0565H98.5425V50.3862H111.792V53.1941H98.5425V61.34H113.246V64.1642H95.373Z" fill="white"/>
<path d="M115.152 64.1642V40.2323H118.322V52.1003L130.215 40.2323H134.512L124.465 49.9291L134.953 64.1642H130.771L122.243 52.0513L118.322 55.8713V64.1642H115.152Z" fill="white"/>
<path d="M132.627 64.1642L141.826 40.2323H145.24L155.043 64.1642H151.432L148.638 56.9161H138.623L135.993 64.1642H132.627ZM139.538 54.3368H147.658L145.158 47.709C144.396 45.6956 143.83 44.0414 143.459 42.7463C143.154 44.2808 142.724 45.8045 142.169 47.3172L139.538 54.3368Z" fill="white"/>
<path d="M154.155 56.4753L157.144 56.2141C157.286 57.4113 157.613 58.3962 158.125 59.1689C158.647 59.9307 159.453 60.551 160.543 61.0299C161.632 61.4978 162.857 61.7318 164.219 61.7318C165.428 61.7318 166.495 61.5523 167.421 61.1931C168.347 60.834 169.033 60.3442 169.479 59.7239C169.937 59.0927 170.165 58.4071 170.165 57.667C170.165 56.9161 169.948 56.2631 169.512 55.7081C169.076 55.1421 168.357 54.6687 167.355 54.2878C166.713 54.0375 165.291 53.6512 163.091 53.1288C160.891 52.5955 159.35 52.0949 158.468 51.6269C157.324 51.0283 156.469 50.2883 155.903 49.4068C155.347 48.5143 155.069 47.5185 155.069 46.4194C155.069 45.2113 155.413 44.0849 156.099 43.0402C156.785 41.9845 157.787 41.1846 159.105 40.6404C160.423 40.0963 161.888 39.8242 163.5 39.8242C165.275 39.8242 166.838 40.1126 168.189 40.6894C169.55 41.2553 170.596 42.0933 171.325 43.2034C172.055 44.3135 172.447 45.5705 172.502 46.9744L169.463 47.2029C169.3 45.6902 168.744 44.5475 167.796 43.7748C166.86 43.0021 165.471 42.6157 163.63 42.6157C161.713 42.6157 160.314 42.9694 159.432 43.6768C158.56 44.3733 158.125 45.2168 158.125 46.2071C158.125 47.0669 158.435 47.7743 159.056 48.3293C159.666 48.8844 161.256 49.4557 163.826 50.0434C166.408 50.6202 168.178 51.1263 169.136 51.5616C170.53 52.2037 171.56 53.0199 172.224 54.0103C172.888 54.9898 173.221 56.1216 173.221 57.4058C173.221 58.6791 172.856 59.8817 172.126 61.0136C171.396 62.1345 170.345 63.0106 168.973 63.6418C167.611 64.2621 166.076 64.5723 164.366 64.5723C162.198 64.5723 160.379 64.2567 158.909 63.6255C157.449 62.9943 156.3 62.0474 155.462 60.785C154.634 59.5117 154.198 58.0751 154.155 56.4753Z" fill="white"/>
<path d="M174.13 56.4753L177.119 56.2141C177.261 57.4113 177.588 58.3962 178.1 59.1689C178.622 59.9307 179.428 60.551 180.518 61.0299C181.607 61.4978 182.832 61.7318 184.194 61.7318C185.403 61.7318 186.47 61.5523 187.396 61.1931C188.322 60.834 189.008 60.3442 189.454 59.7239C189.912 59.0927 190.14 58.4071 190.14 57.667C190.14 56.9161 189.923 56.2631 189.487 55.7081C189.051 55.1421 188.332 54.6687 187.33 54.2878C186.688 54.0375 185.266 53.6512 183.066 53.1288C180.866 52.5955 179.325 52.0949 178.443 51.6269C177.299 51.0283 176.444 50.2883 175.878 49.4068C175.322 48.5143 175.045 47.5185 175.045 46.4194C175.045 45.2113 175.388 44.0849 176.074 43.0402C176.76 41.9845 177.762 41.1846 179.08 40.6404C180.398 40.0963 181.863 39.8242 183.475 39.8242C185.25 39.8242 186.813 40.1126 188.164 40.6894C189.525 41.2553 190.571 42.0933 191.3 43.2034C192.03 44.3135 192.422 45.5705 192.477 46.9744L189.438 47.2029C189.275 45.6902 188.719 44.5475 187.772 43.7748C186.835 43.0021 185.446 42.6157 183.605 42.6157C181.688 42.6157 180.289 42.9694 179.407 43.6768C178.535 44.3733 178.1 45.2168 178.1 46.2071C178.1 47.0669 178.41 47.7743 179.031 48.3293C179.641 48.8844 181.231 49.4557 183.801 50.0434C186.383 50.6202 188.153 51.1263 189.111 51.5616C190.505 52.2037 191.535 53.0199 192.199 54.0103C192.863 54.9898 193.196 56.1216 193.196 57.4058C193.196 58.6791 192.831 59.8817 192.101 61.0136C191.371 62.1345 190.32 63.0106 188.948 63.6418C187.586 64.2621 186.051 64.5723 184.341 64.5723C182.173 64.5723 180.354 64.2567 178.884 63.6255C177.424 62.9943 176.275 62.0474 175.437 60.785C174.609 59.5117 174.173 58.0751 174.13 56.4753Z" fill="white"/>
<path d="M192.553 64.1642L201.751 40.2323H205.165L214.968 64.1642H211.357L208.563 56.9161H198.549L195.918 64.1642H192.553ZM199.463 54.3368H207.583L205.084 47.709C204.321 45.6956 203.755 44.0414 203.384 42.7463C203.079 44.2808 202.649 45.8045 202.094 47.3172L199.463 54.3368Z" fill="white"/>
<path d="M35.5254 87.1253V72.5915H37.1493V73.9568C37.5321 73.4225 37.9645 73.0235 38.4464 72.7597C38.9282 72.4892 39.5124 72.354 40.1989 72.354C41.0967 72.354 41.8888 72.5849 42.5753 73.0466C43.2618 73.5083 43.78 74.1613 44.1299 75.0055C44.4797 75.8432 44.6547 76.7633 44.6547 77.7659C44.6547 78.841 44.4599 79.8106 44.0705 80.6746C43.6876 81.5321 43.1265 82.1916 42.3872 82.6534C41.6545 83.1085 40.8822 83.336 40.0702 83.336C39.4761 83.336 38.9414 83.2107 38.4662 82.9601C37.9975 82.7094 37.6113 82.3928 37.3077 82.0103V87.1253H35.5254ZM37.1394 77.9044C37.1394 79.2565 37.4133 80.2558 37.9612 80.9022C38.5091 81.5486 39.1725 81.8717 39.9514 81.8717C40.7435 81.8717 41.4201 81.5387 41.9812 80.8725C42.5489 80.1997 42.8328 79.1609 42.8328 77.756C42.8328 76.417 42.5555 75.4145 42.001 74.7483C41.4531 74.0821 40.7963 73.749 40.0306 73.749C39.2715 73.749 38.5982 74.1052 38.0107 74.8175C37.4298 75.5233 37.1394 76.5522 37.1394 77.9044Z" fill="white"/>
<path d="M53.675 81.8025C53.0149 82.3631 52.3779 82.7589 51.764 82.9897C51.1567 83.2206 50.5032 83.336 49.8035 83.336C48.6483 83.336 47.7605 83.0557 47.14 82.4951C46.5195 81.9278 46.2092 81.2056 46.2092 80.3283C46.2092 79.8139 46.3247 79.3456 46.5558 78.9234C46.7934 78.4947 47.1004 78.1517 47.4766 77.8945C47.8595 77.6372 48.2886 77.4427 48.7638 77.3108C49.1137 77.2184 49.6418 77.1294 50.3481 77.0436C51.7871 76.8721 52.8466 76.6677 53.5265 76.4302C53.5331 76.1862 53.5364 76.0312 53.5364 75.9652C53.5364 75.2397 53.3681 74.7285 53.0314 74.4317C52.576 74.0293 51.8993 73.8282 51.0016 73.8282C50.1633 73.8282 49.5428 73.9766 49.1401 74.2734C48.744 74.5636 48.4503 75.0814 48.2589 75.8267L46.5162 75.5893C46.6746 74.8439 46.9353 74.2437 47.2984 73.7886C47.6615 73.3269 48.1862 72.974 48.8728 72.73C49.5593 72.4793 50.3547 72.354 51.259 72.354C52.1568 72.354 52.8862 72.4595 53.4473 72.6706C54.0084 72.8817 54.4209 73.1488 54.685 73.472C54.949 73.7886 55.1339 74.1909 55.2395 74.679C55.2989 74.9824 55.3286 75.5299 55.3286 76.3214V78.6959C55.3286 80.3514 55.3649 81.4002 55.4375 81.8421C55.5167 82.2774 55.6686 82.6962 55.893 83.0986H54.0315C53.8467 82.7292 53.7278 82.2972 53.675 81.8025ZM53.5265 77.8252C52.8796 78.0891 51.9092 78.3133 50.6154 78.498C49.8827 78.6035 49.3645 78.7223 49.0609 78.8542C48.7572 78.9861 48.5229 79.1807 48.3579 79.4379C48.1928 79.6885 48.1103 79.9689 48.1103 80.2789C48.1103 80.7538 48.2886 81.1495 48.645 81.4661C49.0081 81.7827 49.5362 81.941 50.2293 81.941C50.9158 81.941 51.5264 81.7926 52.0611 81.4958C52.5958 81.1924 52.9885 80.7801 53.2394 80.2591C53.4308 79.8567 53.5265 79.2631 53.5265 78.4782V77.8252Z" fill="white"/>
<path d="M58.0218 87.1451L57.8238 85.4731C58.2133 85.5786 58.5532 85.6314 58.8437 85.6314C59.2397 85.6314 59.5566 85.5654 59.7942 85.4335C60.0319 85.3016 60.2266 85.1169 60.3784 84.8794C60.4906 84.7013 60.6722 84.2594 60.923 83.5537C60.956 83.4547 61.0088 83.3096 61.0814 83.1184L57.0911 72.5915H59.012L61.2002 78.6761C61.4841 79.4478 61.7382 80.2591 61.9627 81.1099C62.1673 80.2921 62.4115 79.494 62.6954 78.7157L64.9431 72.5915H66.7253L62.7251 83.2767C62.296 84.4309 61.9627 85.2257 61.725 85.661C61.4082 86.2481 61.0451 86.6768 60.6359 86.9472C60.2266 87.2242 59.7381 87.3628 59.1704 87.3628C58.8272 87.3628 58.4443 87.2902 58.0218 87.1451Z" fill="white"/>
<path d="M68.2403 83.0986V72.5915H69.8344V74.0656C70.1645 73.5511 70.6035 73.1389 71.1514 72.8289C71.6992 72.5123 72.323 72.354 73.0228 72.354C73.8017 72.354 74.4387 72.5156 74.9338 72.8388C75.4354 73.162 75.7886 73.6138 75.9932 74.1942C76.825 72.9674 77.9076 72.354 79.241 72.354C80.2839 72.354 81.086 72.6442 81.6471 73.2247C82.2081 73.7985 82.4887 74.6856 82.4887 75.8861V83.0986H80.7163V76.4797C80.7163 75.7673 80.6569 75.2562 80.5381 74.9462C80.4259 74.6296 80.2179 74.3756 79.9143 74.1843C79.6106 73.9931 79.2542 73.8974 78.8449 73.8974C78.1056 73.8974 77.4917 74.1448 77.0032 74.6395C76.5147 75.1275 76.2705 75.9124 76.2705 76.9942V83.0986H74.4882V76.2719C74.4882 75.4804 74.343 74.8868 74.0525 74.4911C73.7621 74.0953 73.2868 73.8974 72.6267 73.8974C72.125 73.8974 71.6596 74.0293 71.2306 74.2932C70.8081 74.557 70.5012 74.9429 70.3097 75.4507C70.1183 75.9586 70.0226 76.6908 70.0226 77.6471V83.0986H68.2403Z" fill="white"/>
<path d="M92.3309 79.7149L94.1726 79.9425C93.8821 81.0176 93.3441 81.852 92.5586 82.4456C91.7731 83.0392 90.7697 83.336 89.5485 83.336C88.0105 83.336 86.7893 82.8644 85.8849 81.9212C84.9872 80.9714 84.5383 79.6424 84.5383 77.9341C84.5383 76.1664 84.9938 74.7945 85.9047 73.8183C86.8157 72.8421 87.9973 72.354 89.4495 72.354C90.8555 72.354 92.0041 72.8322 92.8953 73.7886C93.7864 74.745 94.232 76.0905 94.232 77.8252C94.232 77.9308 94.2287 78.0891 94.2221 78.3001H86.38C86.446 79.4544 86.7728 80.3382 87.3603 80.9516C87.9478 81.565 88.6805 81.8717 89.5584 81.8717C90.2119 81.8717 90.7697 81.7003 91.2318 81.3573C91.6939 81.0143 92.0602 80.4668 92.3309 79.7149ZM86.479 76.8359H92.3507C92.2715 75.952 92.047 75.2891 91.6774 74.8472C91.1097 74.1613 90.3737 73.8183 89.4693 73.8183C88.6508 73.8183 87.961 74.092 87.3999 74.6395C86.8454 75.1869 86.5384 75.919 86.479 76.8359Z" fill="white"/>
<path d="M96.4202 83.0986V72.5915H98.0243V74.0854C98.7966 72.9311 99.9122 72.354 101.371 72.354C102.005 72.354 102.586 72.4694 103.114 72.7003C103.648 72.9245 104.048 73.2214 104.312 73.5907C104.576 73.9601 104.761 74.3987 104.866 74.9066C104.932 75.2364 104.965 75.8135 104.965 76.638V83.0986H103.183V76.7072C103.183 75.9817 103.114 75.4408 102.975 75.0847C102.836 74.7219 102.589 74.435 102.232 74.2239C101.883 74.0063 101.47 73.8974 100.995 73.8974C100.236 73.8974 99.5789 74.1382 99.0244 74.6197C98.4765 75.1012 98.2025 76.0147 98.2025 77.3602V83.0986H96.4202Z" fill="white"/>
<path d="M111.599 81.5057L111.857 83.0788C111.355 83.1843 110.906 83.2371 110.51 83.2371C109.863 83.2371 109.362 83.1348 109.005 82.9304C108.649 82.7259 108.398 82.4588 108.253 82.129C108.107 81.7926 108.035 81.0901 108.035 80.0216V73.9766H106.728V72.5915H108.035V69.9894L109.807 68.9209V72.5915H111.599V73.9766H109.807V80.1206C109.807 80.6284 109.837 80.9549 109.896 81.1C109.962 81.2451 110.065 81.3606 110.203 81.4463C110.348 81.5321 110.553 81.5749 110.817 81.5749C111.015 81.5749 111.276 81.5519 111.599 81.5057Z" fill="white"/>
<path d="M118.283 79.9623L120.045 79.6852C120.144 80.391 120.418 80.9318 120.867 81.3078C121.323 81.6838 121.956 81.8717 122.768 81.8717C123.587 81.8717 124.194 81.7069 124.59 81.3771C124.986 81.0407 125.184 80.6482 125.184 80.1997C125.184 79.7974 125.009 79.4808 124.66 79.2499C124.415 79.0916 123.808 78.8904 122.838 78.6464C121.531 78.3166 120.623 78.033 120.115 77.7955C119.613 77.5515 119.23 77.2184 118.966 76.7963C118.709 76.3676 118.58 75.896 118.58 75.3815C118.58 74.9132 118.686 74.4812 118.897 74.0854C119.115 73.6831 119.408 73.35 119.778 73.0861C120.055 72.8817 120.432 72.7102 120.907 72.5717C121.389 72.4266 121.904 72.354 122.452 72.354C123.277 72.354 124 72.4727 124.62 72.7102C125.247 72.9476 125.709 73.2708 126.006 73.6798C126.303 74.0821 126.508 74.623 126.62 75.3023L124.877 75.5398C124.798 74.9989 124.567 74.5768 124.184 74.2734C123.808 73.97 123.273 73.8183 122.58 73.8183C121.762 73.8183 121.178 73.9535 120.828 74.2239C120.478 74.4943 120.303 74.8109 120.303 75.1737C120.303 75.4046 120.376 75.6123 120.521 75.797C120.666 75.9883 120.894 76.1466 121.204 76.2719C121.382 76.3379 121.907 76.4896 122.778 76.727C124.039 77.0634 124.917 77.3404 125.412 77.5581C125.914 77.7692 126.307 78.0792 126.59 78.4881C126.874 78.897 127.016 79.4049 127.016 80.0117C127.016 80.6054 126.841 81.166 126.491 81.6937C126.148 82.2147 125.65 82.6204 124.996 82.9106C124.343 83.1942 123.603 83.336 122.778 83.336C121.412 83.336 120.369 83.0524 119.649 82.4852C118.936 81.9179 118.481 81.077 118.283 79.9623Z" fill="white"/>
<path d="M129.056 87.1451L128.858 85.4731C129.247 85.5786 129.587 85.6314 129.878 85.6314C130.274 85.6314 130.591 85.5654 130.828 85.4335C131.066 85.3016 131.261 85.1169 131.413 84.8794C131.525 84.7013 131.706 84.2594 131.957 83.5537C131.99 83.4547 132.043 83.3096 132.116 83.1184L128.125 72.5915H130.046L132.234 78.6761C132.518 79.4478 132.772 80.2591 132.997 81.1099C133.201 80.2921 133.446 79.494 133.729 78.7157L135.977 72.5915H137.759L133.759 83.2767C133.33 84.4309 132.997 85.2257 132.759 85.661C132.442 86.2481 132.079 86.6768 131.67 86.9472C131.261 87.2242 130.772 87.3628 130.205 87.3628C129.861 87.3628 129.478 87.2902 129.056 87.1451Z" fill="white"/>
<path d="M138.561 79.9623L140.324 79.6852C140.423 80.391 140.697 80.9318 141.146 81.3078C141.601 81.6838 142.235 81.8717 143.047 81.8717C143.865 81.8717 144.473 81.7069 144.869 81.3771C145.265 81.0407 145.463 80.6482 145.463 80.1997C145.463 79.7974 145.288 79.4808 144.938 79.2499C144.694 79.0916 144.087 78.8904 143.116 78.6464C141.809 78.3166 140.902 78.033 140.393 77.7955C139.892 77.5515 139.509 77.2184 139.245 76.7963C138.987 76.3676 138.859 75.896 138.859 75.3815C138.859 74.9132 138.964 74.4812 139.175 74.0854C139.393 73.6831 139.687 73.35 140.057 73.0861C140.334 72.8817 140.71 72.7102 141.185 72.5717C141.667 72.4266 142.182 72.354 142.73 72.354C143.555 72.354 144.278 72.4727 144.898 72.7102C145.526 72.9476 145.988 73.2708 146.285 73.6798C146.582 74.0821 146.786 74.623 146.899 75.3023L145.156 75.5398C145.077 74.9989 144.846 74.5768 144.463 74.2734C144.087 73.97 143.552 73.8183 142.859 73.8183C142.04 73.8183 141.456 73.9535 141.106 74.2239C140.756 74.4943 140.581 74.8109 140.581 75.1737C140.581 75.4046 140.654 75.6123 140.799 75.797C140.944 75.9883 141.172 76.1466 141.482 76.2719C141.661 76.3379 142.185 76.4896 143.057 76.727C144.318 77.0634 145.196 77.3404 145.691 77.5581C146.192 77.7692 146.585 78.0792 146.869 78.4881C147.153 78.897 147.295 79.4049 147.295 80.0117C147.295 80.6054 147.12 81.166 146.77 81.6937C146.427 82.2147 145.928 82.6204 145.275 82.9106C144.621 83.1942 143.882 83.336 143.057 83.336C141.69 83.336 140.647 83.0524 139.928 82.4852C139.215 81.9179 138.759 81.077 138.561 79.9623Z" fill="white"/>
<path d="M153.305 81.5057L153.562 83.0788C153.061 83.1843 152.612 83.2371 152.216 83.2371C151.569 83.2371 151.067 83.1348 150.711 82.9304C150.354 82.7259 150.103 82.4588 149.958 82.129C149.813 81.7926 149.74 81.0901 149.74 80.0216V73.9766H148.433V72.5915H149.74V69.9894L151.513 68.9209V72.5915H153.305V73.9766H151.513V80.1206C151.513 80.6284 151.542 80.9549 151.602 81.1C151.668 81.2451 151.77 81.3606 151.909 81.4463C152.054 81.5321 152.259 81.5749 152.523 81.5749C152.721 81.5749 152.981 81.5519 153.305 81.5057Z" fill="white"/>
<path d="M162.256 79.7149L164.098 79.9425C163.807 81.0176 163.269 81.852 162.484 82.4456C161.698 83.0392 160.695 83.336 159.474 83.336C157.936 83.336 156.714 82.8644 155.81 81.9212C154.912 80.9714 154.463 79.6424 154.463 77.9341C154.463 76.1664 154.919 74.7945 155.83 73.8183C156.741 72.8421 157.922 72.354 159.375 72.354C160.781 72.354 161.929 72.8322 162.82 73.7886C163.712 74.745 164.157 76.0905 164.157 77.8252C164.157 77.9308 164.154 78.0891 164.147 78.3001H156.305C156.371 79.4544 156.698 80.3382 157.285 80.9516C157.873 81.565 158.606 81.8717 159.484 81.8717C160.137 81.8717 160.695 81.7003 161.157 81.3573C161.619 81.0143 161.985 80.4668 162.256 79.7149ZM156.404 76.8359H162.276C162.197 75.952 161.972 75.2891 161.602 74.8472C161.035 74.1613 160.299 73.8183 159.394 73.8183C158.576 73.8183 157.886 74.092 157.325 74.6395C156.771 75.1869 156.464 75.919 156.404 76.8359Z" fill="white"/>
<path d="M166.345 83.0986V72.5915H167.94V74.0656C168.27 73.5511 168.709 73.1389 169.256 72.8289C169.804 72.5123 170.428 72.354 171.128 72.354C171.907 72.354 172.544 72.5156 173.039 72.8388C173.541 73.162 173.894 73.6138 174.098 74.1942C174.93 72.9674 176.013 72.354 177.346 72.354C178.389 72.354 179.191 72.6442 179.752 73.2247C180.313 73.7985 180.594 74.6856 180.594 75.8861V83.0986H178.821V76.4797C178.821 75.7673 178.762 75.2562 178.643 74.9462C178.531 74.6296 178.323 74.3756 178.019 74.1843C177.716 73.9931 177.359 73.8974 176.95 73.8974C176.211 73.8974 175.597 74.1448 175.108 74.6395C174.62 75.1275 174.376 75.9124 174.376 76.9942V83.0986H172.593V76.2719C172.593 75.4804 172.448 74.8868 172.158 74.4911C171.867 74.0953 171.392 73.8974 170.732 73.8974C170.23 73.8974 169.765 74.0293 169.336 74.2932C168.913 74.557 168.606 74.9429 168.415 75.4507C168.223 75.9586 168.128 76.6908 168.128 77.6471V83.0986H166.345Z" fill="white"/>
</svg>
