<svg width="36" height="36" viewBox="0 0 36 36" fill="none" xmlns="http://www.w3.org/2000/svg">
<path fill-rule="evenodd" clip-rule="evenodd" d="M3.375 18C3.375 9.92285 9.92285 3.375 18 3.375C26.0772 3.375 32.625 9.92284 32.625 18C32.625 26.0772 26.0772 32.625 18 32.625C9.92284 32.625 3.375 26.0772 3.375 18ZM18 0C8.05888 0 0 8.05888 0 18C0 27.9412 8.05889 36 18 36C27.9412 36 36 27.9412 36 18C36 8.05889 27.9412 0 18 0ZM24.5266 13.7776C24.9904 12.9693 24.7111 11.9379 23.9027 11.4741C23.0944 11.0103 22.0631 11.2896 21.5992 12.0979L16.4386 21.0919C16.212 21.4867 15.6349 21.4628 15.4414 21.0508L14.4656 18.971C14.0698 18.1273 13.0649 17.7642 12.2211 18.1601C11.3774 18.5559 11.0143 19.5608 11.4102 20.4045L12.3861 22.4846C13.7397 25.3691 17.78 25.5351 19.366 22.7715L24.5266 13.7776Z" fill="#FF9000"/>
</svg>
