<svg width="15" height="20" viewBox="0 0 15 20" fill="none" xmlns="http://www.w3.org/2000/svg">
<path d="M7.61542 6.11655C6.89948 6.11655 5.79124 5.30253 4.62416 5.33195C3.0844 5.35157 1.67213 6.22443 0.87773 7.60727C-0.720878 10.3828 0.465819 14.4823 2.0252 16.738C2.79017 17.8364 3.69246 19.0721 4.88896 19.0329C6.03643 18.9839 6.46795 18.2875 7.86061 18.2875C9.24345 18.2875 9.63575 19.0329 10.8519 19.0035C12.0876 18.9839 12.8722 17.8854 13.6274 16.7772C14.5002 15.5022 14.8631 14.2665 14.8827 14.1979C14.8533 14.188 12.4799 13.276 12.4505 10.5299C12.4309 8.23495 14.3237 7.13652 14.412 7.08748C13.3331 5.50849 11.6757 5.33195 11.097 5.29273C9.58671 5.17504 8.32155 6.11655 7.61542 6.11655ZM10.1653 3.802C10.8028 3.03702 11.2245 1.96801 11.1069 0.908813C10.1948 0.948043 9.09634 1.51687 8.43924 2.28185C7.8508 2.95856 7.34081 4.04718 7.47812 5.08677C8.48828 5.16523 9.52786 4.56698 10.1653 3.802Z" fill="white"/>
</svg>
