<svg width="1440" height="750" viewBox="0 0 1440 750" fill="none" xmlns="http://www.w3.org/2000/svg">
<path fill-rule="evenodd" clip-rule="evenodd" d="M1503.83 529.207C1458 453.436 1352.49 382.332 1273.15 373.747C1180.41 363.714 1072.55 398.603 915.747 489.358C875.681 512.546 771.289 571.988 746.397 585.785L435 752.559L445.5 779.224C448 783.5 525.075 759.28 749.2 624.46C755.149 621.409 801.27 594.788 815.758 586.042C857.831 560.643 915.78 531.512 1044.63 470.982C1198.35 398.771 1294.92 389.403 1372.6 439.164C1434.15 478.587 1464.6 523.875 1477.91 595.769L1478.47 598.789L1502.95 586.616L1527.42 574.444L1517.02 554.13C1511.3 542.958 1505.37 531.743 1503.83 529.207ZM1449.85 587.237C1444.32 579.433 1433.94 565.709 1426.77 556.739C1419.61 547.77 1410.93 536.437 1407.48 531.556C1392.08 509.745 1360.81 483.46 1329.71 466.184C1292.23 445.356 1256.04 441.289 1205.43 452.22C1157.79 462.513 1127.79 474.643 1017.28 528.306C971.416 550.575 912.403 579.106 886.135 591.707C836.179 615.675 810.468 629.395 780.184 648.248L541.11 792.512L550.544 811.481L559.978 830.449L787.601 693.411C790.208 691.841 809.502 681.199 830.474 669.762C851.447 658.327 892.28 635.615 921.216 619.292C1097.26 519.985 1145.18 497.358 1202.07 486.681C1286.58 470.816 1397.96 530.973 1441.18 615.834C1441.62 616.69 1444.79 615.542 1452.33 611.788L1462.87 606.547L1461.39 603.987C1460.57 602.579 1455.38 595.041 1449.85 587.237ZM1396.01 621.21C1377.48 593.617 1346.11 565.241 1322.17 554.418C1260.02 526.317 1204.49 526.802 1132.96 556.066C1097.06 570.75 946.214 644.848 899.675 670.656C885.973 678.256 866.069 689.297 855.446 695.193C837.772 705.002 810.861 721.182 802.635 726.944L576.403 863.475L583.122 876.983L589.84 890.491L821.951 750.913C827.026 747.946 852.863 732.62 879.365 716.855C905.866 701.09 934.978 683.802 944.06 678.439C1062.06 608.736 1172.58 573.717 1244.63 583.193C1270.1 586.542 1323.78 604.018 1334.41 612.419C1341.5 618.021 1361.04 637.665 1367.24 645.414L1444.84 745.714L1461.19 737.584L1404.91 635.374L1403.18 632.338C1402.22 630.667 1399 625.661 1396.01 621.21ZM1310 628.5C1297.83 621.626 1217.82 601.229 1165.72 615.813C1120.53 628.462 963.93 703.085 875.006 754.345C853.935 766.49 834.177 777.687 831.102 779.224L825.509 782.02L831.131 793.324L836.752 804.628L861.312 792.061C874.819 785.151 914.193 764.333 948.808 745.803C1174.18 625.149 1248 626.536 1313 673C1378 719.464 1396.01 770 1396.01 770L1411.74 762.175C1420.4 757.872 1370.91 673 1354.47 659.562C1338.02 646.124 1322.17 635.374 1310 628.5ZM1266.68 684.335C1204.51 656.943 1141.35 673.041 998.998 752.559C982.731 761.645 942.455 782.875 909.495 799.738L849.568 830.396L856.645 844.624L863.721 858.851L868.251 857.224C870.744 856.328 919.106 832.773 975.725 804.88C1083.85 751.611 1091.8 747.975 1162.46 719.464C1209.55 700.467 1241.15 695.778 1254.39 705.826L1330.53 802.569L1345.41 795.166C1353.6 791.095 1356.37 770 1329.71 743C1293.19 706 1277.93 689.292 1266.68 684.335Z" fill="#32393F"/>
<path d="M-60.3318 197.861C-71.5888 208.018 -83.7847 219.248 -87.4335 222.817L-94.0674 229.306L-82.7252 240.762L-71.3838 252.218L-56.13 238.269C78.9742 114.711 125.081 47.4683 116.635 -13.6967L115.465 -22.1673L91.8042 1.07057L68.1432 24.3085L67.4029 35.6712C66.0823 55.9219 56.5945 77.0022 40.4273 95.6058C22.4162 116.331 -38.5884 178.241 -60.3318 197.861Z" fill="#32393F"/>
<path d="M-12.5422 236.773C-28.0556 252.46 -42.5771 267.467 -44.8141 270.122L-48.879 274.951L-39.0512 284.878L-29.2233 294.805L-22.3996 288.103C-18.6469 284.418 -7.17846 272.452 3.08413 261.513C58.1468 202.825 70.3569 189.256 100.769 152.963C108.84 143.332 123.742 126.219 133.885 114.935C210.966 29.1777 234.81 -18.8024 229.99 -78.4525C229.394 -85.8123 228.467 -97.7805 227.928 -105.049C227.389 -112.318 226.257 -120.601 225.414 -123.455L223.881 -128.644L206.389 -111.465L188.898 -94.2873L190.029 -83.1879C190.65 -77.0837 191.639 -69.7753 192.228 -66.9484C198.551 -36.5338 190.52 -13.1657 160.313 25.9045C140.295 51.7965 125.185 71.8966 109.774 93.1339C66.6811 152.513 41.248 182.38 -12.5422 236.773Z" fill="#32393F"/>
<path d="M221.157 66.9416C187.412 107.856 104.589 193.949 31.6289 263.947L-15.2479 308.922L-7.60655 316.64L0.0355519 324.36L65.1626 260.378C128.207 198.443 143.941 182.199 189.103 132.42C196.415 124.362 210.658 109.647 220.755 99.7213C241.944 78.8893 255.815 63.44 269.232 45.7259C274.453 38.8318 282.585 28.6654 287.301 23.1335C338.704 -37.1534 336.151 -101.786 279.865 -165.116L271.08 -175L260.81 -164.913L250.538 -154.825L257.165 -146.053C286.015 -107.868 297.333 -67.8226 286.804 -41.1889C271.938 -3.58332 251.34 30.3451 221.157 66.9416Z" fill="#32393F"/>
</svg>
