<svg width="318" height="298" viewBox="0 0 318 298" fill="none" xmlns="http://www.w3.org/2000/svg">
<path d="M-67.3318 170.352C-78.5888 180.55 -90.7847 191.825 -94.4335 195.408L-101.067 201.923L-89.7252 213.425L-78.3838 224.927L-63.13 210.922C71.9742 86.8692 118.081 19.358 109.635 -42.0516L108.465 -50.5562L84.8042 -27.2253L61.1432 -3.89443L60.4029 7.5137C59.0824 27.8455 49.5945 49.0101 33.4273 67.688C15.4162 88.4958 -45.5884 150.653 -67.3318 170.352Z" fill="#242A2E"/>
<path d="M-19.5422 209.42C-35.0556 225.169 -49.5771 240.236 -51.8141 242.902L-55.879 247.75L-46.0512 257.717L-36.2233 267.684L-29.3996 260.956C-25.6469 257.255 -14.1785 245.242 -3.91588 234.258C51.1468 175.336 63.3569 161.713 93.7691 125.275C101.84 115.605 116.742 98.4233 126.885 87.0949C203.966 0.994258 227.81 -47.1777 222.99 -107.066C222.394 -114.456 221.467 -126.472 220.928 -133.77C220.389 -141.067 219.257 -149.383 218.414 -152.249L216.881 -157.459L199.389 -140.211L181.898 -122.965L183.029 -111.821C183.65 -105.692 184.64 -98.3546 185.228 -95.5163C191.551 -64.9801 183.52 -41.5185 153.313 -2.29203C133.295 23.7035 118.185 43.8841 102.774 65.2063C59.6812 124.823 34.248 154.81 -19.5422 209.42Z" fill="#242A2E"/>
<path d="M214.157 38.9092C180.412 79.9877 97.5885 166.425 24.6289 236.702L-22.2479 281.857L-14.6066 289.607L-6.96445 297.357L58.1626 233.12C121.207 170.936 136.941 154.628 182.103 104.65C189.415 96.5589 203.658 81.7854 213.755 71.82C234.944 50.9047 248.815 35.3936 262.232 17.6086C267.453 10.687 275.585 0.479875 280.301 -5.07415C331.704 -65.6022 329.151 -130.494 272.865 -194.077L264.08 -204L253.81 -193.873L243.538 -183.745L250.165 -174.938C279.015 -136.6 290.333 -96.394 279.804 -69.6538C264.938 -31.8978 244.34 2.16636 214.157 38.9092Z" fill="#242A2E"/>
</svg>
