<svg width="1440" height="1196" viewBox="0 0 1440 1196" fill="none" xmlns="http://www.w3.org/2000/svg">
<path d="M950.456 236.671C1254.46 155.414 1966.82 9.37965 1924.65 402.822C1897.06 660.236 1629.06 974.286 1325.06 1055.54C1021.06 1136.8 741.496 975.959 686.533 770.332C631.571 564.705 646.457 317.928 950.456 236.671Z" fill="url(#paint0_radial_613_2195)"/>
<path d="M-67.3318 170.352C-78.5888 180.55 -90.7847 191.825 -94.4335 195.408L-101.067 201.923L-89.7252 213.425L-78.3838 224.927L-63.13 210.922C71.9742 86.8693 118.081 19.3581 109.635 -42.0515L108.465 -50.556L84.8042 -27.2252L61.1432 -3.89431L60.4029 7.51382C59.0824 27.8456 49.5945 49.0102 33.4273 67.6881C15.4162 88.4959 -45.5884 150.653 -67.3318 170.352Z" fill="#242A2E"/>
<path d="M-19.5422 209.42C-35.0556 225.169 -49.5771 240.236 -51.8141 242.903L-55.879 247.751L-46.0512 257.717L-36.2233 267.684L-29.3996 260.956C-25.6469 257.255 -14.1785 245.242 -3.91588 234.259C51.1468 175.336 63.3569 161.713 93.7691 125.275C101.84 115.605 116.742 98.4234 126.885 87.095C203.966 0.99438 227.81 -47.1776 222.99 -107.066C222.394 -114.456 221.467 -126.472 220.928 -133.769C220.389 -141.067 219.257 -149.383 218.414 -152.249L216.881 -157.459L199.389 -140.211L181.898 -122.964L183.029 -111.821C183.65 -105.692 184.64 -98.3544 185.228 -95.5162C191.551 -64.98 183.52 -41.5184 153.313 -2.29191C133.295 23.7036 118.185 43.8842 102.774 65.2065C59.6812 124.823 34.248 154.81 -19.5422 209.42Z" fill="#242A2E"/>
<path d="M214.157 38.9094C180.412 79.9878 97.5885 166.425 24.6289 236.702L-22.2479 281.858L-14.6066 289.607L-6.96445 297.357L58.1626 233.12C121.207 170.936 136.941 154.628 182.103 104.65C189.415 96.559 203.658 81.7855 213.755 71.8201C234.944 50.9048 248.815 35.3937 262.232 17.6088C267.453 10.6871 275.585 0.479997 280.301 -5.07403C331.704 -65.6021 329.151 -130.494 272.865 -194.077L264.08 -204L253.81 -193.873L243.538 -183.744L250.165 -174.938C279.015 -136.6 290.333 -96.3939 279.804 -69.6537C264.938 -31.8977 244.34 2.16649 214.157 38.9094Z" fill="#242A2E"/>
<path d="M45.5982 781.231C30.4085 781.24 13.8007 781.418 8.69068 781.627L-0.599201 782.006L0.0936145 798.146L0.786382 814.284L21.4937 814.133C204.907 812.793 284.392 793.667 319.331 742.464L324.17 735.373L290.971 736.798L257.773 738.223L249.57 746.186C234.949 760.376 213.713 769.704 189.194 772.707C161.877 776.052 74.9377 781.212 45.5982 781.231Z" fill="#242A2E"/>
<path d="M54.8226 842.264C32.7524 843.534 11.8755 844.963 8.42799 845.439L2.16105 846.307L2.76136 860.291L3.36168 874.276L12.936 873.865C18.2014 873.639 34.7659 872.425 49.7447 871.166C130.108 864.418 148.302 862.509 195.301 855.894C207.774 854.139 230.351 851.396 245.473 849.801C360.398 837.673 410.399 817.951 447.006 770.309C451.522 764.43 458.897 754.898 463.393 749.124C467.89 743.351 472.63 736.426 473.928 733.735L476.286 728.843L451.744 729.896L427.203 730.95L420.564 739.972C416.913 744.933 412.724 751.038 411.255 753.537C395.457 780.423 373.76 792.431 325.043 801.252C292.758 807.097 268.014 811.923 242.28 817.394C170.327 832.688 131.349 837.86 54.8226 842.264Z" fill="#242A2E"/>
<path d="M342.516 872.626C289.933 880.445 170.524 888.97 69.2714 892.13L4.21534 894.162L4.6821 905.035L5.1489 915.91L96.5407 911.973C185.01 908.162 207.619 906.625 274.64 899.867C285.49 898.773 305.964 897.374 320.137 896.759C349.881 895.467 370.574 893.272 392.455 889.086C400.971 887.457 413.849 885.344 421.073 884.39C499.799 873.995 541.445 824.165 542.367 739.252L542.512 726L528.101 726.619L513.689 727.237L512.694 738.214C508.365 785.998 489.781 823.405 464.033 836.169C427.678 854.192 389.549 865.631 342.516 872.626Z" fill="#242A2E"/>
<defs>
<radialGradient id="paint0_radial_613_2195" cx="0" cy="0" r="1" gradientUnits="userSpaceOnUse" gradientTransform="translate(786.052 1142.65) rotate(-49.0395) scale(1375.73 887.236)">
<stop stop-color="#272A2D" stop-opacity="0.21"/>
<stop offset="1" stop-color="#272A2D"/>
</radialGradient>
</defs>
</svg>
