<svg width="1440" height="1275" viewBox="0 0 1440 1275" fill="none" xmlns="http://www.w3.org/2000/svg">
<path d="M230.456 315.671C534.456 234.414 1246.82 88.3796 1204.65 481.822C1177.06 739.236 909.059 1053.29 605.059 1134.54C301.059 1215.8 21.4957 1054.96 -33.4668 849.332C-88.4293 643.705 -73.5435 396.928 230.456 315.671Z" fill="url(#paint0_radial_607_2195)"/>
<path d="M-67.3318 170.352C-78.5888 180.55 -90.7847 191.825 -94.4335 195.408L-101.067 201.923L-89.7252 213.425L-78.3838 224.927L-63.13 210.922C71.9742 86.8693 118.081 19.3581 109.635 -42.0515L108.465 -50.556L84.8042 -27.2252L61.1432 -3.89431L60.4029 7.51382C59.0824 27.8456 49.5945 49.0102 33.4273 67.6881C15.4162 88.4959 -45.5884 150.653 -67.3318 170.352Z" fill="#242A2E"/>
<path d="M-19.5422 209.42C-35.0556 225.169 -49.5771 240.236 -51.8141 242.903L-55.879 247.751L-46.0512 257.717L-36.2233 267.684L-29.3996 260.956C-25.6469 257.255 -14.1785 245.242 -3.91588 234.259C51.1468 175.336 63.3569 161.713 93.7691 125.275C101.84 115.605 116.742 98.4234 126.885 87.095C203.966 0.99438 227.81 -47.1776 222.99 -107.066C222.394 -114.456 221.467 -126.472 220.928 -133.769C220.389 -141.067 219.257 -149.383 218.414 -152.249L216.881 -157.459L199.389 -140.211L181.898 -122.964L183.029 -111.821C183.65 -105.692 184.64 -98.3544 185.228 -95.5162C191.551 -64.98 183.52 -41.5184 153.313 -2.29191C133.295 23.7036 118.185 43.8842 102.774 65.2065C59.6812 124.823 34.248 154.81 -19.5422 209.42Z" fill="#242A2E"/>
<path d="M214.157 38.9094C180.412 79.9878 97.5885 166.425 24.6289 236.702L-22.2479 281.858L-14.6066 289.607L-6.96445 297.357L58.1626 233.12C121.207 170.936 136.941 154.628 182.103 104.65C189.415 96.559 203.658 81.7855 213.755 71.8201C234.944 50.9048 248.815 35.3937 262.232 17.6088C267.453 10.6871 275.585 0.479997 280.301 -5.07403C331.704 -65.6021 329.151 -130.494 272.865 -194.077L264.08 -204L253.81 -193.873L243.538 -183.744L250.165 -174.938C279.015 -136.6 290.333 -96.3939 279.804 -69.6537C264.938 -31.8977 244.34 2.16649 214.157 38.9094Z" fill="#242A2E"/>
<path d="M1448.06 900.231C1463.25 900.24 1479.86 900.418 1484.97 900.627L1494.26 901.006L1493.57 917.146L1492.87 933.284L1472.17 933.133C1288.75 931.793 1209.27 912.667 1174.33 861.464L1169.49 854.373L1202.69 855.798L1235.89 857.223L1244.09 865.186C1258.71 879.376 1279.95 888.704 1304.47 891.707C1331.78 895.052 1418.72 900.212 1448.06 900.231Z" fill="#242A2E"/>
<path d="M1438.84 961.264C1460.91 962.534 1481.79 963.963 1485.23 964.439L1491.5 965.307L1490.9 979.291L1490.3 993.276L1480.72 992.865C1475.46 992.639 1458.89 991.425 1443.92 990.166C1363.55 983.418 1345.36 981.509 1298.36 974.894C1285.89 973.139 1263.31 970.396 1248.19 968.801C1133.26 956.673 1083.26 936.951 1046.65 889.309C1042.14 883.43 1034.76 873.898 1030.27 868.124C1025.77 862.351 1021.03 855.426 1019.73 852.735L1017.37 847.843L1041.92 848.896L1066.46 849.95L1073.1 858.972C1076.75 863.933 1080.94 870.038 1082.41 872.537C1098.2 899.423 1119.9 911.431 1168.62 920.252C1200.9 926.097 1225.65 930.923 1251.38 936.394C1323.33 951.688 1362.31 956.86 1438.84 961.264Z" fill="#242A2E"/>
<path d="M1151.14 991.626C1203.73 999.445 1323.14 1007.97 1424.39 1011.13L1489.45 1013.16L1488.98 1024.04L1488.51 1034.91L1397.12 1030.97C1308.65 1027.16 1286.04 1025.63 1219.02 1018.87C1208.17 1017.77 1187.7 1016.37 1173.52 1015.76C1143.78 1014.47 1123.09 1012.27 1101.21 1008.09C1092.69 1006.46 1079.81 1004.34 1072.59 1003.39C993.862 992.995 952.216 943.165 951.293 858.252L951.149 845L965.56 845.619L979.971 846.237L980.966 857.214C985.296 904.998 1003.88 942.405 1029.63 955.169C1065.98 973.192 1104.11 984.631 1151.14 991.626Z" fill="#242A2E"/>
<defs>
<radialGradient id="paint0_radial_607_2195" cx="0" cy="0" r="1" gradientUnits="userSpaceOnUse" gradientTransform="translate(66.0517 1221.65) rotate(-49.0395) scale(1375.73 887.236)">
<stop stop-color="#272A2D" stop-opacity="0.21"/>
<stop offset="1" stop-color="#272A2D"/>
</radialGradient>
</defs>
</svg>
