<svg width="1440" height="750" viewBox="0 0 1440 750" fill="none" xmlns="http://www.w3.org/2000/svg">
<path fill-rule="evenodd" clip-rule="evenodd" d="M1388.99 60.9336C1300.74 67.9282 1190.09 128.13 1147.07 192.559C1096.79 267.864 1080 375.322 1091.43 548.636C1094.35 592.919 1101.09 707.883 1102.35 735.135L1103.09 751H1120.67C1134.03 751 1138.25 750.577 1138.23 749.237C1138.15 742.829 1134.85 691.884 1133.47 675.718C1129.47 628.768 1129.19 566.6 1132.37 430.179C1136.17 267.431 1170.78 180.556 1249.93 135.124C1312.64 99.1332 1366.75 92.3275 1437.05 111.592L1440 112.402V86.2002V60L1417.18 60.2538C1404.63 60.3934 1391.95 60.6995 1388.99 60.9336ZM1416.91 132.03C1407.46 133.445 1390.55 136.499 1379.33 138.821C1368.11 141.14 1354.09 143.755 1348.19 144.631C1321.8 148.54 1284.34 164.155 1255.03 183.466C1219.68 206.747 1199.93 236.07 1187.18 284.166C1175.18 329.453 1172.68 360.376 1171.52 478.126C1171.03 526.989 1170.3 589.814 1169.88 617.736C1169.1 670.84 1169.93 698.762 1173.33 732.8L1175.14 751H1196.33H1217.51L1217.07 745.712C1216.82 742.804 1215.89 721.703 1214.99 698.822C1214.09 675.942 1211.93 631.203 1210.2 599.403C1199.68 405.932 1200.76 355.144 1216.54 301.764C1239.97 222.46 1343.43 152.555 1438.66 151.676C1439.62 151.666 1440 148.461 1440 140.382V129.1L1437.05 129.281C1435.42 129.379 1426.36 130.617 1416.91 132.03ZM1423.36 192.74C1390.4 196.865 1351.02 211.673 1330.67 227.598C1277.83 268.944 1253.54 316.808 1247.89 390.693C1245.05 427.766 1244.22 588.858 1246.6 639.814C1247.31 654.817 1248.33 676.612 1248.88 688.246C1249.79 707.601 1252.29 737.603 1253.79 747.122L1254.4 751H1269.49H1284.57L1283.85 740.776C1283.45 735.154 1281.24 706.438 1278.92 676.964C1276.61 647.491 1274.09 615.127 1273.34 605.044C1263.48 474.018 1281.33 364.223 1321.91 306.429C1336.24 286.006 1375.8 247.394 1388.05 241.857C1396.22 238.164 1422.52 229.773 1432.21 227.764L1440 226.149V208.65V191.149L1436.51 191.339C1434.59 191.444 1428.67 192.074 1423.36 192.74ZM1420.13 256.068C1361.5 292.289 1326.11 337.142 1315.97 388.078C1307.17 432.259 1304.25 598.51 1310.55 696.707C1312.04 719.976 1313.27 741.711 1313.28 745.007L1313.29 751H1325.91H1338.54L1338.22 724.559C1338.05 710.017 1336.94 667.34 1335.77 629.722C1328.1 384.801 1336.47 353.988 1428.99 286.456L1440 278.422V261.58C1440 252.317 1439.64 244.748 1439.19 244.764C1438.75 244.778 1430.17 249.864 1420.13 256.068ZM1422.28 330.68C1370.07 372.345 1356.36 433.419 1364.17 589.532C1365.06 607.371 1366.13 650.998 1366.55 686.483L1367.32 751H1383.21H1399.1L1399.66 746.417C1399.97 743.895 1400.41 692.336 1400.65 631.838C1401.1 516.307 1401.39 507.932 1407.33 435.114C1411.28 386.598 1421.16 357.471 1436.05 350.399L1440 348.525V332.591C1440 323.828 1439.88 316.728 1439.73 316.812C1439.58 316.898 1431.73 323.138 1422.28 330.68Z" fill="#32393F"/>
<path d="M-60.3318 197.861C-71.5888 208.018 -83.7847 219.248 -87.4335 222.817L-94.0674 229.306L-82.7252 240.762L-71.3838 252.218L-56.13 238.269C78.9742 114.711 125.081 47.4683 116.635 -13.6967L115.465 -22.1673L91.8042 1.07057L68.1432 24.3085L67.4029 35.6712C66.0823 55.9219 56.5945 77.0022 40.4273 95.6058C22.4162 116.331 -38.5884 178.241 -60.3318 197.861Z" fill="#32393F"/>
<path d="M-12.5422 236.773C-28.0556 252.46 -42.5771 267.467 -44.8141 270.122L-48.879 274.951L-39.0512 284.878L-29.2233 294.805L-22.3996 288.103C-18.6469 284.418 -7.17846 272.452 3.08413 261.513C58.1468 202.825 70.3569 189.256 100.769 152.963C108.84 143.332 123.742 126.219 133.885 114.935C210.966 29.1777 234.81 -18.8024 229.99 -78.4525C229.394 -85.8123 228.467 -97.7805 227.928 -105.049C227.389 -112.318 226.257 -120.601 225.414 -123.455L223.881 -128.644L206.389 -111.465L188.898 -94.2873L190.029 -83.1879C190.65 -77.0837 191.639 -69.7753 192.228 -66.9484C198.551 -36.5338 190.52 -13.1657 160.313 25.9045C140.295 51.7965 125.185 71.8966 109.774 93.1339C66.6811 152.513 41.248 182.38 -12.5422 236.773Z" fill="#32393F"/>
<path d="M221.157 66.9416C187.412 107.856 104.589 193.949 31.6289 263.947L-15.2479 308.922L-7.60655 316.64L0.0355519 324.36L65.1626 260.378C128.207 198.443 143.941 182.199 189.103 132.42C196.415 124.362 210.658 109.647 220.755 99.7213C241.944 78.8893 255.815 63.44 269.232 45.7259C274.453 38.8318 282.585 28.6654 287.301 23.1335C338.704 -37.1534 336.151 -101.786 279.865 -165.116L271.08 -175L260.81 -164.913L250.538 -154.825L257.165 -146.053C286.015 -107.868 297.333 -67.8226 286.804 -41.1889C271.938 -3.58332 251.34 30.3451 221.157 66.9416Z" fill="#32393F"/>
</svg>
