<svg width="575" height="1230" viewBox="0 0 575 1230" fill="none" xmlns="http://www.w3.org/2000/svg">
<path d="M64.4489 303.96C44.7711 315.581 36.5957 330.97 36.3194 348.178C36.0447 365.29 43.5822 384.064 54.9839 402.574C77.7974 439.609 116.393 476.077 140.667 496.958C165.187 518.051 189.534 520.875 211.802 513.629C233.986 506.41 254.009 489.235 270.107 470.522C302.573 432.781 301.581 361.943 252.655 319.855C228.191 298.811 193.902 287.312 159.401 284.821C124.903 282.331 90.0569 288.837 64.4489 303.96Z" fill="url(#paint0_radial_303_1310)" stroke="url(#paint1_radial_303_1310)" stroke-width="2"/>
<path fill-rule="evenodd" clip-rule="evenodd" d="M521.502 0.794205C428.937 6.74468 312.884 57.9595 267.764 112.771C215.029 176.835 197.417 268.251 209.407 415.694C212.47 453.366 219.534 551.169 220.865 574.353L221.64 587.849H240.079C254.091 587.849 258.512 587.49 258.494 586.35C258.407 580.898 254.948 537.558 253.502 523.805C249.301 483.864 249.009 430.976 252.348 314.919C256.33 176.466 292.636 102.559 375.65 63.91C441.417 33.2915 498.17 27.5018 571.903 43.8908L575 44.5794V22.2891V0L551.067 0.215942C537.904 0.334712 524.599 0.595056 521.502 0.794205ZM550.785 61.2779C540.874 62.4812 523.135 65.0797 511.366 67.0544C499.596 69.0279 484.898 71.2521 478.704 71.9971C451.028 75.3227 411.739 88.6069 380.993 105.036C343.925 124.841 323.203 149.786 309.833 190.703C297.243 229.23 294.624 255.537 293.404 355.709C292.897 397.278 292.128 450.725 291.693 474.479C290.869 519.655 291.745 543.409 295.305 572.366L297.208 587.849H319.429H341.648L341.181 583.351C340.925 580.877 339.943 562.926 338.998 543.461C338.054 523.996 335.797 485.936 333.982 458.883C322.946 294.292 324.079 251.086 340.623 205.674C365.198 138.208 473.709 78.7382 573.592 77.9908C574.6 77.9824 575 75.2555 575 68.3825V58.7849L571.903 58.9385C570.2 59.0225 560.697 60.0758 550.785 61.2779ZM557.543 112.925C522.975 116.434 481.677 129.032 460.332 142.58C404.914 177.754 379.433 218.472 373.503 281.328C370.529 312.867 369.658 449.911 372.158 493.261C372.895 506.024 373.967 524.566 374.543 534.463C375.5 550.929 378.125 576.452 379.694 584.55L380.334 587.849H396.158H411.981L411.225 579.152C410.81 574.368 408.484 549.939 406.057 524.866C403.63 499.792 400.992 472.259 400.197 463.681C389.854 352.214 408.585 258.81 451.138 209.643C466.175 192.269 507.66 159.42 520.514 154.71C529.087 151.568 556.663 144.43 566.835 142.72L575 141.347V126.46V111.571L571.34 111.733C569.326 111.822 563.118 112.358 557.543 112.925ZM554.164 166.799C492.671 197.613 455.551 235.771 444.913 279.104C435.687 316.689 432.624 458.123 439.228 541.661C440.792 561.456 442.08 579.947 442.086 582.751L442.1 587.849H455.342H468.582L468.252 565.355C468.071 552.984 466.911 516.678 465.676 484.676C457.634 276.316 466.411 250.102 563.456 192.651L575 185.817V171.489C575 163.608 574.621 157.169 574.155 157.183C573.69 157.195 564.695 161.522 554.164 166.799ZM556.417 230.274C501.656 265.719 487.275 317.676 495.463 450.485C496.398 465.661 497.524 502.776 497.965 532.964L498.767 587.849H515.434H532.099L532.687 583.95C533.01 581.805 533.478 537.942 533.728 486.475C534.203 388.191 534.502 381.066 540.732 319.118C544.883 277.844 555.241 253.066 570.86 247.049L575 245.455V231.899C575 224.445 574.873 218.404 574.719 218.476C574.564 218.549 566.328 223.858 556.417 230.274Z" fill="#242B2F"/>
<path fill-rule="evenodd" clip-rule="evenodd" d="M233.498 1166.45C326.063 1160.5 442.116 1109.29 487.236 1054.48C539.971 990.412 557.583 898.996 545.593 751.554C542.53 713.881 535.466 616.078 534.135 592.894L533.36 579.398H514.921C500.909 579.398 498.982 578.758 499 579.898C499.087 585.349 500.052 629.689 501.498 643.442C505.699 683.383 505.991 736.271 502.652 852.328C498.67 990.781 462.364 1064.69 379.35 1103.34C313.583 1133.96 256.83 1139.75 183.097 1123.36L180 1122.67V1144.96V1167.25L203.933 1167.03C217.096 1166.91 230.401 1166.65 233.498 1166.45ZM204.215 1105.97C214.126 1104.77 231.865 1102.17 243.634 1100.19C255.404 1098.22 270.102 1095.99 276.296 1095.25C303.972 1091.92 343.261 1078.64 374.007 1062.21C411.075 1042.41 431.797 1017.46 445.167 976.544C457.757 938.017 460.376 911.71 461.596 811.538C462.103 769.969 462.872 716.522 463.307 692.769C464.131 647.592 474.184 622.838 470.623 593.881L468.72 578.398H446.5H442.5L443 594.398C443 604.898 442.5 603.898 441.5 625.586C438.5 646.898 436.685 696.345 438.5 723.398C449.536 887.988 430.921 916.161 414.377 961.573C389.802 1029.04 281.291 1088.51 181.408 1089.26C180.4 1089.26 180 1091.99 180 1098.86V1108.46L183.097 1108.31C184.8 1108.22 194.303 1107.17 204.215 1105.97ZM197.457 1054.32C232.025 1050.81 273.323 1038.22 294.668 1024.67C350.086 989.493 375.567 948.775 381.497 885.919C384.471 854.38 412.713 740.898 412.86 688.818C412.124 676.054 416.911 640.295 416.336 630.398C415.379 613.932 414.921 588.397 413.352 580.299L412.713 577L394.72 577.011H378.897L379.653 585.709C380.069 590.492 382.395 614.922 384.822 639.995C387.249 665.069 384.027 709.82 384.822 718.398C361 844.233 346.415 908.437 303.862 957.604C288.825 974.978 247.34 1007.83 234.486 1012.54C225.913 1015.68 198.337 1022.82 188.165 1024.53L180 1025.9V1040.79V1055.68L183.66 1055.51C185.674 1055.42 191.882 1054.89 197.457 1054.32ZM200.836 1000.45C262.329 969.634 299.449 931.476 310.087 888.143C319.313 850.558 350.976 709.124 344.372 625.586C342.807 605.791 341.52 587.3 341.513 584.496L341.5 579.398L310.245 580.299H297.004L297.334 602.793C297.516 615.164 288.089 650.569 289.324 682.571C297.366 890.931 288.589 917.145 191.544 974.596L180 981.43V995.758C180 1003.64 180.379 1010.08 180.845 1010.06C181.31 1010.05 190.305 1005.73 200.836 1000.45ZM198.583 936.973C253.344 901.528 267.725 849.571 259.537 716.762C258.602 701.586 257.476 664.471 257.035 634.284L258 579.398H239.566L221.5 578.398V583.898C221.177 586.043 221.522 629.305 221.272 680.772C220.797 779.056 220.498 786.181 214.268 848.129C210.117 889.403 205.758 927.605 190.139 933.621L185.999 935.216V948.771C185.999 956.226 180.127 948.843 180.281 948.771C180.436 948.698 188.672 943.389 198.583 936.973Z" fill="#242B2F"/>
<path d="M284.601 1140.49C296.194 1124.99 299.049 1110.36 296.016 1096.88C292.994 1083.45 284.163 1071.31 272.678 1060.68C249.716 1039.41 215.804 1023.84 194.888 1015.65C184.271 1011.49 174.514 1010.87 165.609 1012.94C156.713 1015.01 148.732 1019.76 141.626 1026.24C127.436 1039.18 116.631 1059.12 108.863 1078.96C101.026 1098.97 100.597 1122.65 107.398 1143.4C114.201 1164.16 128.271 1182.07 149.499 1190.38C170.702 1198.68 196.971 1196.25 221.628 1186.77C246.297 1177.28 269.498 1160.7 284.601 1140.49Z" fill="url(#paint2_radial_303_1310)" stroke="url(#paint3_radial_303_1310)" stroke-width="2"/>
<defs>
<radialGradient id="paint0_radial_303_1310" cx="0" cy="0" r="1" gradientUnits="userSpaceOnUse" gradientTransform="translate(327.464 402.312) rotate(-176.856) scale(292.374 196.34)">
<stop stop-color="#FF9000"/>
<stop offset="1" stop-color="#FFBF00"/>
</radialGradient>
<radialGradient id="paint1_radial_303_1310" cx="0" cy="0" r="1" gradientUnits="userSpaceOnUse" gradientTransform="translate(327.464 402.312) rotate(-176.856) scale(292.374 196.34)">
<stop stop-color="#FF9000"/>
<stop offset="1" stop-color="#FFBF00"/>
</radialGradient>
<radialGradient id="paint2_radial_303_1310" cx="0" cy="0" r="1" gradientUnits="userSpaceOnUse" gradientTransform="translate(81.7358 1150.97) rotate(-22.0525) scale(223.806 155.279)">
<stop stop-color="#FF9000"/>
<stop offset="1" stop-color="#FFBF00"/>
</radialGradient>
<radialGradient id="paint3_radial_303_1310" cx="0" cy="0" r="1" gradientUnits="userSpaceOnUse" gradientTransform="translate(81.7358 1150.97) rotate(-22.0525) scale(223.806 155.279)">
<stop stop-color="#FF9000"/>
<stop offset="1" stop-color="#FFBF00"/>
</radialGradient>
</defs>
</svg>
