<svg width="1440" height="1637" viewBox="0 0 1440 1637" fill="none" xmlns="http://www.w3.org/2000/svg">
<path fill-rule="evenodd" clip-rule="evenodd" d="M1394.5 469.794C1301.94 475.745 1185.88 526.96 1140.76 581.771C1088.03 645.835 1070.42 737.251 1082.41 884.694C1085.47 922.366 1092.53 1020.17 1093.87 1043.35L1094.64 1056.85H1113.08C1127.09 1056.85 1131.51 1056.49 1131.49 1055.35C1131.41 1049.9 1127.95 1006.56 1126.5 992.805C1122.3 952.864 1122.01 899.976 1125.35 783.919C1129.33 645.466 1165.64 571.559 1248.65 532.91C1314.42 502.291 1371.17 496.502 1444.9 512.891L1448 513.579V491.289V469L1424.07 469.216C1410.9 469.335 1397.6 469.595 1394.5 469.794ZM1423.79 530.278C1413.87 531.481 1396.14 534.08 1384.37 536.054C1372.6 538.028 1357.9 540.252 1351.7 540.997C1324.03 544.323 1284.74 557.607 1253.99 574.036C1216.92 593.841 1196.2 618.786 1182.83 659.703C1170.24 698.23 1167.62 724.537 1166.4 824.709C1165.9 866.278 1165.13 919.725 1164.69 943.479C1163.87 988.655 1164.74 1012.41 1168.3 1041.37L1170.21 1056.85H1192.43H1214.65L1214.18 1052.35C1213.92 1049.88 1212.94 1031.93 1212 1012.46C1211.05 992.996 1208.8 954.936 1206.98 927.883C1195.95 763.292 1197.08 720.086 1213.62 674.674C1238.2 607.208 1346.71 547.738 1446.59 546.991C1447.6 546.982 1448 544.256 1448 537.382V527.785L1444.9 527.939C1443.2 528.022 1433.7 529.076 1423.79 530.278ZM1430.54 581.925C1395.98 585.434 1354.68 598.032 1333.33 611.58C1277.91 646.754 1252.43 687.472 1246.5 750.328C1243.53 781.867 1242.66 918.911 1245.16 962.261C1245.89 975.024 1246.97 993.566 1247.54 1003.46C1248.5 1019.93 1251.13 1045.45 1252.69 1053.55L1253.33 1056.85H1269.16H1284.98L1284.23 1048.15C1283.81 1043.37 1281.48 1018.94 1279.06 993.866C1276.63 968.792 1273.99 941.259 1273.2 932.681C1262.85 821.214 1281.59 727.81 1324.14 678.643C1339.18 661.269 1380.66 628.42 1393.51 623.71C1402.09 620.568 1429.66 613.43 1439.83 611.72L1448 610.347V595.46V580.571L1444.34 580.733C1442.33 580.822 1436.12 581.358 1430.54 581.925ZM1427.16 635.799C1365.67 666.613 1328.55 704.771 1317.91 748.104C1308.69 785.689 1305.62 927.123 1312.23 1010.66C1313.79 1030.46 1315.08 1048.95 1315.09 1051.75L1315.1 1056.85H1328.34H1341.58L1341.25 1034.36C1341.07 1021.98 1339.91 985.678 1338.68 953.676C1330.63 745.316 1339.41 719.102 1436.46 661.651L1448 654.817V640.489C1448 632.608 1447.62 626.169 1447.16 626.183C1446.69 626.195 1437.69 630.522 1427.16 635.799ZM1429.42 699.274C1374.66 734.719 1360.27 786.676 1368.46 919.485C1369.4 934.661 1370.52 971.776 1370.97 1001.96L1371.77 1056.85H1388.43H1405.1L1405.69 1052.95C1406.01 1050.81 1406.48 1006.94 1406.73 955.475C1407.2 857.191 1407.5 850.066 1413.73 788.118C1417.88 746.844 1428.24 722.066 1443.86 716.049L1448 714.455V700.899C1448 693.445 1447.87 687.404 1447.72 687.476C1447.56 687.549 1439.33 692.858 1429.42 699.274Z" fill="#242B2F"/>
<path fill-rule="evenodd" clip-rule="evenodd" d="M1106.5 1635.45C1199.06 1629.5 1315.12 1578.29 1360.24 1523.48C1412.97 1459.41 1430.58 1368 1418.59 1220.55C1415.53 1182.88 1408.47 1085.08 1407.13 1061.89L1406.36 1048.4H1387.92C1373.91 1048.4 1371.98 1047.76 1372 1048.9C1372.09 1054.35 1373.05 1098.69 1374.5 1112.44C1378.7 1152.38 1378.99 1205.27 1375.65 1321.33C1371.67 1459.78 1335.36 1533.69 1252.35 1572.34C1186.58 1602.96 1129.83 1608.75 1056.1 1592.36L1053 1591.67V1613.96V1636.25L1076.93 1636.03C1090.1 1635.91 1103.4 1635.65 1106.5 1635.45ZM1077.21 1574.97C1087.13 1573.77 1104.86 1571.17 1116.63 1569.19C1128.4 1567.22 1143.1 1564.99 1149.3 1564.25C1176.97 1560.92 1216.26 1547.64 1247.01 1531.21C1284.08 1511.41 1304.8 1486.46 1318.17 1445.54C1330.76 1407.02 1333.38 1380.71 1334.6 1280.54C1335.1 1238.97 1335.87 1185.52 1336.31 1161.77C1337.13 1116.59 1347.18 1091.84 1343.62 1062.88L1341.72 1047.4H1319.5H1315.5L1316 1063.4C1316 1073.9 1315.5 1072.9 1314.5 1094.59C1311.5 1115.9 1309.69 1165.34 1311.5 1192.4C1322.54 1356.99 1303.92 1385.16 1287.38 1430.57C1262.8 1498.04 1154.29 1557.51 1054.41 1558.26C1053.4 1558.26 1053 1560.99 1053 1567.86V1577.46L1056.1 1577.31C1057.8 1577.22 1067.3 1576.17 1077.21 1574.97ZM1070.46 1523.32C1105.02 1519.81 1146.32 1507.22 1167.67 1493.67C1223.09 1458.49 1248.57 1417.77 1254.5 1354.92C1257.47 1323.38 1285.71 1209.9 1285.86 1157.82C1285.12 1145.05 1289.91 1109.3 1289.34 1099.4C1288.38 1082.93 1287.92 1057.4 1286.35 1049.3L1285.71 1046L1267.72 1046.01H1251.9L1252.65 1054.71C1253.07 1059.49 1255.39 1083.92 1257.82 1109C1260.25 1134.07 1257.03 1178.82 1257.82 1187.4C1234 1313.23 1219.41 1377.44 1176.86 1426.6C1161.82 1443.98 1120.34 1476.83 1107.49 1481.54C1098.91 1484.68 1071.34 1491.82 1061.17 1493.53L1053 1494.9V1509.79V1524.68L1056.66 1524.51C1058.67 1524.42 1064.88 1523.89 1070.46 1523.32ZM1073.84 1469.45C1135.33 1438.63 1172.45 1400.48 1183.09 1357.14C1192.31 1319.56 1223.98 1178.12 1217.37 1094.59C1215.81 1074.79 1214.52 1056.3 1214.51 1053.5L1214.5 1048.4L1183.24 1049.3H1170L1170.33 1071.79C1170.52 1084.16 1161.09 1119.57 1162.32 1151.57C1170.37 1359.93 1161.59 1386.14 1064.54 1443.6L1053 1450.43V1464.76C1053 1472.64 1053.38 1479.08 1053.84 1479.06C1054.31 1479.05 1063.31 1474.73 1073.84 1469.45ZM1071.58 1405.97C1126.34 1370.53 1140.73 1318.57 1132.54 1185.76C1131.6 1170.59 1130.48 1133.47 1130.03 1103.28L1131 1048.4H1112.57L1094.5 1047.4V1052.9C1094.18 1055.04 1094.52 1098.3 1094.27 1149.77C1093.8 1248.06 1093.5 1255.18 1087.27 1317.13C1083.12 1358.4 1078.76 1396.6 1063.14 1402.62L1059 1404.22V1417.77C1059 1425.23 1053.13 1417.84 1053.28 1417.77C1053.44 1417.7 1061.67 1412.39 1071.58 1405.97Z" fill="#242B2F"/>
<path d="M518.456 -83.3289C822.456 -164.586 1534.82 -310.62 1492.65 82.8216C1465.06 340.236 1197.06 654.286 893.059 735.542C589.059 816.799 309.496 655.959 254.533 450.332C199.571 244.705 214.457 -2.07219 518.456 -83.3289Z" fill="url(#paint0_radial_611_2374)"/>
<path d="M-59.3318 181.352C-70.5888 191.55 -82.7847 202.825 -86.4335 206.408L-93.0674 212.923L-81.7252 224.425L-70.3838 235.927L-55.13 221.922C79.9742 97.8692 126.081 30.358 117.635 -31.0516L116.465 -39.5562L92.8042 -16.2253L69.1432 7.10557L68.4029 18.5137C67.0824 38.8455 57.5945 60.0101 41.4273 78.688C23.4162 99.4958 -37.5884 161.653 -59.3318 181.352Z" fill="#242A2E"/>
<path d="M-11.5422 220.42C-27.0556 236.169 -41.5771 251.236 -43.8141 253.902L-47.879 258.75L-38.0512 268.717L-28.2233 278.684L-21.3996 271.956C-17.6469 268.255 -6.17846 256.242 4.08412 245.258C59.1468 186.336 71.3569 172.713 101.769 136.275C109.84 126.605 124.742 109.423 134.885 98.0949C211.966 11.9943 235.81 -36.1777 230.99 -96.0664C230.394 -103.456 229.467 -115.472 228.928 -122.77C228.389 -130.067 227.257 -138.383 226.414 -141.249L224.881 -146.459L207.389 -129.211L189.898 -111.965L191.029 -100.821C191.65 -94.6922 192.64 -87.3546 193.228 -84.5163C199.551 -53.9801 191.52 -30.5185 161.313 8.70797C141.295 34.7035 126.185 54.8841 110.774 76.2063C67.6812 135.823 42.248 165.81 -11.5422 220.42Z" fill="#242A2E"/>
<path d="M222.157 49.9092C188.412 90.9877 105.589 177.425 32.6289 247.702L-14.2479 292.857L-6.60655 300.607L1.03555 308.357L66.1626 244.12C129.207 181.936 144.941 165.628 190.103 115.65C197.415 107.559 211.658 92.7854 221.755 82.82C242.944 61.9047 256.815 46.3936 270.232 28.6086C275.453 21.687 283.585 11.4799 288.301 5.92585C339.704 -54.6022 337.151 -119.494 280.865 -183.077L272.08 -193L261.81 -182.873L251.538 -172.745L258.165 -163.938C287.015 -125.6 298.333 -85.394 287.804 -58.6538C272.938 -20.8978 252.34 13.1664 222.157 49.9092Z" fill="#242A2E"/>
<path d="M53.5982 794.231C38.4085 794.24 21.8007 794.418 16.6907 794.627L7.4008 795.006L8.09361 811.146L8.78638 827.284L29.4937 827.133C212.907 825.793 292.392 806.667 327.331 755.464L332.17 748.373L298.971 749.798L265.773 751.223L257.57 759.186C242.949 773.376 221.713 782.704 197.194 785.707C169.877 789.052 82.9377 794.212 53.5982 794.231Z" fill="#242A2E"/>
<path d="M62.8226 855.264C40.7524 856.534 19.8755 857.963 16.428 858.439L10.161 859.307L10.7614 873.291L11.3617 887.276L20.936 886.865C26.2014 886.639 42.7659 885.425 57.7447 884.166C138.108 877.418 156.302 875.509 203.301 868.894C215.774 867.139 238.351 864.396 253.473 862.801C368.398 850.673 418.399 830.951 455.006 783.309C459.522 777.43 466.897 767.898 471.393 762.124C475.89 756.351 480.63 749.426 481.928 746.735L484.286 741.843L459.744 742.896L435.203 743.95L428.564 752.972C424.913 757.933 420.724 764.038 419.255 766.537C403.457 793.423 381.76 805.431 333.043 814.252C300.758 820.097 276.014 824.923 250.28 830.394C178.327 845.688 139.349 850.86 62.8226 855.264Z" fill="#242A2E"/>
<path d="M350.516 885.626C297.933 893.445 178.524 901.97 77.2714 905.13L12.2153 907.162L12.6821 918.035L13.1489 928.91L104.541 924.973C193.01 921.162 215.619 919.625 282.64 912.867C293.49 911.773 313.964 910.374 328.137 909.759C357.881 908.467 378.574 906.272 400.455 902.086C408.971 900.457 421.849 898.344 429.073 897.39C507.799 886.995 549.445 837.165 550.367 752.252L550.512 739L536.101 739.619L521.689 740.237L520.694 751.214C516.365 798.998 497.781 836.405 472.033 849.169C435.678 867.192 397.549 878.631 350.516 885.626Z" fill="#242A2E"/>
<defs>
<radialGradient id="paint0_radial_611_2374" cx="0" cy="0" r="1" gradientUnits="userSpaceOnUse" gradientTransform="translate(354.052 822.654) rotate(-49.0395) scale(1375.73 887.236)">
<stop stop-color="#272A2D" stop-opacity="0.21"/>
<stop offset="1" stop-color="#272A2D"/>
</radialGradient>
</defs>
</svg>
