<svg width="543" height="190" viewBox="0 0 543 190" fill="none" xmlns="http://www.w3.org/2000/svg">
<path d="M45.5982 55.2306C30.4085 55.2401 13.8007 55.4175 8.69068 55.6267L-0.599201 56.0064L0.0936145 72.1456L0.786382 88.2838L21.4937 88.1333C204.907 86.7926 284.392 67.6669 319.331 16.464L324.17 9.37292L290.971 10.798L257.773 12.2232L249.57 20.1858C234.949 34.3761 213.713 43.7041 189.194 46.707C161.877 50.0519 74.9377 55.2123 45.5982 55.2306Z" fill="#242A2E"/>
<path d="M54.8226 116.264C32.7524 117.534 11.8755 118.963 8.42799 119.439L2.16105 120.307L2.76136 134.291L3.36168 148.276L12.936 147.865C18.2014 147.639 34.7659 146.425 49.7447 145.166C130.108 138.418 148.302 136.509 195.301 129.894C207.774 128.139 230.351 125.396 245.473 123.801C360.398 111.673 410.399 91.9511 447.006 44.3088C451.522 38.4299 458.897 28.8976 463.393 23.1244C467.89 17.3511 472.63 10.4255 473.928 7.73528L476.286 2.84297L451.744 3.8965L427.203 4.94998L420.564 13.9716C416.913 18.9329 412.724 25.0379 411.255 27.5371C395.457 54.423 373.76 66.4313 325.043 75.2515C292.758 81.0971 268.014 85.9233 242.28 91.3941C170.327 106.688 131.349 111.86 54.8226 116.264Z" fill="#242A2E"/>
<path d="M342.516 146.626C289.933 154.445 170.524 162.97 69.2714 166.13L4.21534 168.162L4.6821 179.035L5.1489 189.91L96.5407 185.973C185.01 182.162 207.619 180.625 274.64 173.867C285.49 172.773 305.964 171.374 320.137 170.759C349.881 169.467 370.574 167.272 392.455 163.086C400.971 161.457 413.849 159.344 421.073 158.39C499.799 147.995 541.445 98.1647 542.367 13.2522L542.512 7.26866e-05L528.101 0.618685L513.689 1.23735L512.694 12.2138C508.365 59.9981 489.781 97.4052 464.033 110.169C427.678 128.192 389.549 139.631 342.516 146.626Z" fill="#242A2E"/>
</svg>
