<svg width="163" height="114" viewBox="0 0 163 114" fill="none" xmlns="http://www.w3.org/2000/svg">
<path d="M126.358 28.3905C123.584 19.8211 116.76 13.5156 107.872 9.2234C98.9848 4.93165 87.9505 2.60698 76.5541 2.02575C65.1519 1.44422 53.3326 2.605 42.8498 5.32847C32.3827 8.04784 23.1638 12.3475 17.0418 18.1075C4.98048 29.4555 0.772752 40.3329 1.28386 50.1492C1.79282 59.9242 6.97118 68.4271 13.2345 75.0841C13.5023 75.3687 13.7654 75.6484 14.0239 75.9233C19.715 81.9732 23.2252 85.7047 26.6342 88.7492C30.2187 91.9504 33.6811 94.3841 39.4165 97.9706C58.7069 110.033 83.9672 113.487 106.214 112.227C117.35 111.596 127.77 109.782 136.363 107.25C144.924 104.728 151.78 101.462 155.688 97.8578C161.572 92.4316 162.843 86.0062 161.376 79.336C159.927 72.7471 155.812 65.9066 150.955 59.4197C146.988 54.1217 142.464 48.9817 138.383 44.3447C137.459 43.2946 136.557 42.2704 135.69 41.2759C133.333 38.5728 131.233 36.0951 129.596 33.8988C127.944 31.6838 126.827 29.8375 126.358 28.3905Z" fill="url(#paint0_radial_283_6424)" stroke="url(#paint1_radial_283_6424)" stroke-width="2"/>
<defs>
<radialGradient id="paint0_radial_283_6424" cx="0" cy="0" r="1" gradientUnits="userSpaceOnUse" gradientTransform="translate(85.117 150.026) rotate(-95.9093) scale(164.997 110.578)">
<stop stop-color="#FF9000"/>
<stop offset="1" stop-color="#FFBF00"/>
</radialGradient>
<radialGradient id="paint1_radial_283_6424" cx="0" cy="0" r="1" gradientUnits="userSpaceOnUse" gradientTransform="translate(85.117 150.026) rotate(-95.9093) scale(164.997 110.578)">
<stop stop-color="#FF9000"/>
<stop offset="1" stop-color="#FFBF00"/>
</radialGradient>
</defs>
</svg>
