<svg width="203" height="191" viewBox="0 0 203 191" fill="none" xmlns="http://www.w3.org/2000/svg">
<path d="M11.7842 56.5749C11.4107 57.8419 10.9917 59.2217 10.5419 60.7028C8.25218 68.2429 5.16469 78.41 3.22384 89.7073C0.901146 103.227 0.200202 118.462 4.49216 132.909C8.79378 147.388 18.0947 161.015 35.6532 171.296C53.1828 181.561 78.8934 188.463 115.992 189.638C150.955 190.745 172.695 184.891 185.509 175.008C198.39 165.074 202.076 151.214 201.281 136.832C200.488 122.487 195.239 107.512 190.136 95.1136C188.548 91.2523 186.959 87.6086 185.522 84.3145C184.657 82.3306 183.847 80.4735 183.126 78.772C182.16 76.494 181.35 74.487 180.757 72.7885C180.159 71.0746 179.807 69.741 179.72 68.7896C178.904 59.8715 172.31 46.2768 161.996 33.6563C151.659 21.0067 137.439 9.15359 121.172 3.84731C98.4892 -3.5516 72.6362 4.55632 51.8286 16.9071C41.4026 23.0957 32.1844 30.3826 25.187 37.4117C18.2204 44.4099 13.3524 51.2547 11.7842 56.5749Z" fill="url(#paint0_radial_283_6423)" stroke="url(#paint1_radial_283_6423)" stroke-width="2"/>
<defs>
<radialGradient id="paint0_radial_283_6423" cx="0" cy="0" r="1" gradientUnits="userSpaceOnUse" gradientTransform="translate(188.325 5.67153) rotate(130.736) scale(236.164 164.003)">
<stop stop-color="#FF9000"/>
<stop offset="1" stop-color="#FFBF00"/>
</radialGradient>
<radialGradient id="paint1_radial_283_6423" cx="0" cy="0" r="1" gradientUnits="userSpaceOnUse" gradientTransform="translate(188.325 5.67153) rotate(130.736) scale(236.164 164.003)">
<stop stop-color="#FF9000"/>
<stop offset="1" stop-color="#FFBF00"/>
</radialGradient>
</defs>
</svg>
