<svg width="21" height="21" viewBox="0 0 21 21" fill="none" xmlns="http://www.w3.org/2000/svg">
<path d="M0.839066 10.5126C0.645862 5.42576 5.10151 0.724879 10.1935 0.663889C12.7887 0.442536 15.3136 1.45036 17.2777 3.09409C16.472 3.97993 15.6523 4.85553 14.7767 5.67526C13.0476 4.62479 10.9659 3.82425 8.94512 4.53523C5.68581 5.46329 3.71197 9.3116 4.91811 12.5001C5.91698 15.8302 9.96745 17.6578 13.1419 16.2589C14.7856 15.6703 15.8694 14.1537 16.3449 12.524C14.461 12.4865 12.5768 12.5099 10.6929 12.4579C10.6882 11.3371 10.6835 10.2205 10.6882 9.09963C13.8298 9.09494 16.9761 9.08556 20.1224 9.11371C20.3156 11.8599 19.9104 14.7989 18.1251 17.0031C15.6804 20.1494 11.1638 21.0728 7.48948 19.8385C3.58999 18.5577 0.754193 14.6292 0.839066 10.5126Z" fill="white"/>
</svg>
