<svg width="1440" height="750" viewBox="0 0 1440 750" fill="none" xmlns="http://www.w3.org/2000/svg">
<path fill-rule="evenodd" clip-rule="evenodd" d="M752.306 34.0433C759.944 122.245 820.952 232.452 885.694 274.999C961.364 324.728 1068.94 340.735 1242.17 328.038C1286.43 324.795 1401.34 317.221 1428.58 315.752L1444.44 314.898L1444.31 297.318C1444.21 283.958 1443.76 279.747 1442.42 279.774C1436.01 279.903 1385.09 283.573 1368.94 285.07C1322.02 289.418 1259.86 290.15 1123.41 287.963C960.643 285.354 873.517 251.374 827.51 172.559C791.062 110.118 783.861 56.059 802.612 -14.3792L803.4 -17.338L777.199 -17.1467L751 -16.9555L751.42 5.86095C751.651 18.4095 752.05 31.092 752.306 34.0433ZM823.197 5.60543C824.68 15.0446 827.858 31.9346 830.261 43.1389C832.663 54.3432 835.379 68.3372 836.298 74.2367C840.4 100.595 856.288 137.939 875.813 167.112C899.351 202.283 928.817 221.826 977.005 234.222C1022.38 245.894 1053.32 248.166 1171.07 248.469C1219.94 248.596 1282.77 248.871 1310.69 249.081C1363.8 249.48 1391.72 248.44 1425.73 244.798L1443.91 242.85L1443.76 221.665L1443.61 200.481L1438.32 200.964C1435.41 201.23 1414.32 202.321 1391.45 203.389C1368.57 204.456 1323.85 206.934 1292.07 208.896C1098.68 220.831 1047.88 220.121 994.389 204.738C914.915 181.886 844.257 78.9412 842.683 -16.2825C842.666 -17.2435 839.458 -17.6012 831.379 -17.5423L820.098 -17.4599L820.3 -14.5083C820.41 -12.8854 821.715 -3.83371 823.197 5.60543ZM883.857 -1.28058C888.223 31.6464 903.318 70.9125 919.392 91.147C961.122 143.682 1009.16 167.626 1083.09 172.74C1120.18 175.305 1281.27 174.959 1332.21 172.204C1347.21 171.392 1368.99 170.21 1380.62 169.577C1399.97 168.523 1429.96 165.801 1439.46 164.235L1443.34 163.597L1443.23 148.51L1443.12 133.424L1432.9 134.219C1427.28 134.657 1398.58 137.084 1369.12 139.613C1339.67 142.142 1307.32 144.893 1297.25 145.725C1166.29 156.542 1056.37 139.485 998.284 99.3369C977.757 85.1497 938.857 45.8791 933.231 33.6643C929.478 25.5185 920.896 -0.71227 918.816 -10.3951L917.144 -18.1684L899.645 -18.0406L882.145 -17.9129L882.361 -14.4244C882.479 -12.5052 883.153 -6.59104 883.857 -1.28058ZM947.207 1.47855C983.855 59.8426 1028.97 94.9056 1079.97 104.676C1124.22 113.15 1290.49 114.857 1388.63 107.843C1411.89 106.182 1433.62 104.796 1436.91 104.765L1442.91 104.709L1442.81 92.0841L1442.72 79.4604L1416.28 79.9681C1401.74 80.2471 1359.08 81.6647 1321.47 83.1162C1076.61 92.5721 1045.74 84.429 977.53 -7.60215L969.416 -18.55L952.575 -18.427C943.311 -18.3594 935.745 -17.9423 935.764 -17.4989C935.782 -17.0555 940.931 -8.51621 947.207 1.47855ZM1021.8 -1.21375C1063.85 50.6914 1125.02 63.9569 1281.07 55.0107C1298.9 53.9892 1342.52 52.597 1378 51.917L1442.51 50.6815L1442.4 34.7913L1442.28 18.9023L1437.69 18.3752C1435.17 18.0855 1383.61 18.0162 1323.11 18.2195C1207.58 18.6097 1199.2 18.3863 1126.34 12.9776C1077.8 9.37482 1048.6 -0.288262 1041.42 -15.1281L1039.52 -19.0617L1023.58 -18.9454C1014.82 -18.8815 1007.72 -18.7083 1007.81 -18.5618C1007.89 -18.4153 1014.19 -10.6081 1021.8 -1.21375Z" fill="#32393F"/>
<path d="M-60.3318 197.861C-71.5888 208.018 -83.7847 219.248 -87.4335 222.817L-94.0674 229.306L-82.7252 240.762L-71.3838 252.218L-56.13 238.269C78.9742 114.711 125.081 47.4683 116.635 -13.6967L115.465 -22.1673L91.8042 1.07057L68.1432 24.3085L67.4029 35.6712C66.0823 55.9219 56.5945 77.0022 40.4273 95.6058C22.4162 116.331 -38.5884 178.241 -60.3318 197.861Z" fill="#32393F"/>
<path d="M-12.5422 236.773C-28.0556 252.46 -42.5771 267.467 -44.8141 270.122L-48.879 274.951L-39.0512 284.878L-29.2233 294.805L-22.3996 288.103C-18.6469 284.418 -7.17846 272.452 3.08413 261.513C58.1468 202.825 70.3569 189.256 100.769 152.963C108.84 143.332 123.742 126.219 133.885 114.935C210.966 29.1777 234.81 -18.8024 229.99 -78.4525C229.394 -85.8123 228.467 -97.7805 227.928 -105.049C227.389 -112.318 226.257 -120.601 225.414 -123.455L223.881 -128.644L206.389 -111.465L188.898 -94.2873L190.029 -83.1879C190.65 -77.0837 191.639 -69.7753 192.228 -66.9484C198.551 -36.5338 190.52 -13.1657 160.313 25.9045C140.295 51.7965 125.185 71.8966 109.774 93.1339C66.6811 152.513 41.248 182.38 -12.5422 236.773Z" fill="#32393F"/>
<path d="M221.157 66.9416C187.412 107.856 104.589 193.949 31.6289 263.947L-15.2479 308.922L-7.60655 316.64L0.0355519 324.36L65.1626 260.378C128.207 198.443 143.941 182.199 189.103 132.42C196.415 124.362 210.658 109.647 220.755 99.7213C241.944 78.8893 255.815 63.44 269.232 45.7259C274.453 38.8318 282.585 28.6654 287.301 23.1335C338.704 -37.1534 336.151 -101.786 279.865 -165.116L271.08 -175L260.81 -164.913L250.538 -154.825L257.165 -146.053C286.015 -107.868 297.333 -67.8226 286.804 -41.1889C271.938 -3.58332 251.34 30.3451 221.157 66.9416Z" fill="#32393F"/>
<path fill-rule="evenodd" clip-rule="evenodd" d="M616.914 941.622C639.153 855.904 616.384 730.726 567.131 667.933C509.563 594.54 409.278 541.689 234.821 492.804C190.246 480.312 74.8035 447.085 47.5459 438.899L-289.27 332.425L-301.027 358.56C-302.343 363.336 -231.188 401.601 21.8171 467.91C28.155 470.038 79.4154 484.467 95.7917 488.732C143.351 501.117 204.667 522.261 337.968 572.239C496.993 631.861 571.126 694.45 589.745 784.807C604.495 856.392 593.339 909.814 551.164 969.54L549.393 972.049L575.197 981.071L600.999 990.093L608.28 968.465C612.285 956.57 616.17 944.49 616.914 941.622ZM537.682 943.497C539.407 934.09 541.981 917.073 543.399 905.681C544.818 894.289 546.868 880.161 547.955 874.284C552.814 848.029 549.799 807.292 540.456 772.971C529.192 731.593 506.835 702.846 463.676 674.252C423.038 647.328 393.408 634.322 277.83 592.68C229.867 575.399 168.238 553.074 140.876 543.069C88.8374 524.042 61.0634 515.216 26.4215 506.7L-243.782 436.282L-250.774 456.281L-257.766 476.278L-0.730511 543.543C2.214 544.314 23.3038 550.695 46.1345 557.723C68.9648 564.752 113.735 578.126 145.623 587.442C339.632 644.127 389.292 662.634 436.656 695.904C507.024 745.329 541.723 867.06 511.157 957.259C510.85 958.17 513.881 959.633 521.837 962.415L532.948 966.3L533.745 963.45C534.183 961.883 535.954 952.904 537.682 943.497ZM475.767 928.675C482.582 896.143 480.994 853.876 472.027 829.181C448.747 765.067 409.628 725.654 338.73 694.876C303.156 679.434 144.783 623.182 93.8128 607.887C78.8055 603.384 57.004 596.844 45.3653 593.356C26.0027 587.553 -4.3702 579.586 -14.2383 577.72L-269.939 511.096L-274.919 525.338L-279.898 539.579L-17.9107 608.283C-12.2428 609.845 16.7693 617.64 46.5591 625.604C76.3489 633.568 109.052 642.338 119.232 645.094C251.525 680.902 353.759 735.565 397.286 793.763C412.667 814.329 437.639 864.961 439.047 878.436C439.987 887.423 439.572 915.132 438.351 924.978L420.733 1050.56L437.967 1056.59L471.84 944.934L472.805 941.574C473.336 939.726 474.668 933.922 475.767 928.675ZM410.493 872.192C406.913 858.676 365.65 787.159 318.834 760.046C278.228 736.53 115.463 676.528 16.6778 648.66C-6.72973 642.056 -28.5405 635.731 -31.7883 634.602L-37.695 632.55L-41.8617 644.468L-46.0282 656.385L-19.8843 665.192C-5.50586 670.036 36.8885 683.687 74.3233 695.529C318.059 772.623 368.608 826.436 380.731 905.411C392.854 984.385 369.253 1032.56 369.253 1032.56L385.839 1038.36C394.962 1041.55 421.166 946.867 419.305 925.713C417.444 904.559 414.073 885.707 410.493 872.192ZM340.274 880.165C316.474 816.533 260.851 782.56 104.531 736.176C86.6688 730.874 43.3489 716.866 8.26345 705.045L-55.5267 683.552L-60.7712 698.552L-66.0154 713.551L-61.6868 715.658C-59.3053 716.817 -8.67495 734.992 50.8261 756.048C164.454 796.256 172.609 799.408 242.36 830.089C288.835 850.53 314.26 869.881 316.31 886.374L300.214 1008.43L315.906 1013.91C324.536 1016.93 341.573 1004.19 342.291 966.252C343.274 914.27 344.583 891.682 340.274 880.165Z" fill="#32393F"/>
</svg>
