<svg width="20" height="18" viewBox="0 0 20 18" fill="none" xmlns="http://www.w3.org/2000/svg">
<path fill-rule="evenodd" clip-rule="evenodd" d="M18.3241 0.146431C18.1289 -0.0488316 17.8123 -0.0488319 17.617 0.14643L14.6309 3.13254C12.7566 2.07669 10.8951 1.63013 9.15914 1.84578C6.52529 2.173 4.00778 3.59576 1.48778 6.18127C-0.416414 8.13497 -0.4404 8.38682 1.11569 10.0915C2.27027 11.3563 3.44939 12.3659 4.64311 13.1203L1.35356 16.4099C1.1583 16.6051 1.1583 16.9217 1.35356 17.117C1.54883 17.3123 1.86541 17.3123 2.06067 17.117L5.53992 13.6377C10.001 15.9677 14.6295 14.7728 18.9152 10.0542C20.4237 8.39317 20.401 8.13608 18.5808 6.26224C17.5704 5.22206 16.5397 4.35511 15.5074 3.67022L18.3241 0.853537C18.5194 0.658275 18.5194 0.341693 18.3241 0.146431ZM13.7183 4.04512C12.7499 3.54632 11.7865 3.22424 10.8635 3.10102C7.92818 2.70915 4.37374 4.55885 1.50529 7.97101L1.22478 8.30466L1.29171 8.4108C1.8528 9.30096 3.98824 11.2138 5.49086 12.1724C5.5113 12.1854 5.53175 12.1984 5.55221 12.2112L6.68181 11.0816C4.7735 8.73028 5.80534 4.71847 9.13964 4.07069C9.25762 4.04778 9.38925 4.02202 9.43216 4.0135C10.4816 3.8045 11.8015 4.23192 12.7518 5.01161L13.7183 4.04512ZM13.443 5.73467L14.6187 4.55893C15.8754 5.3458 17.1218 6.41887 18.2804 7.72969C18.5959 8.08663 18.7297 8.21842 18.7215 8.34068C18.7151 8.43622 18.6219 8.52594 18.4609 8.71274C14.5217 13.283 10.3862 14.6544 6.45861 12.7191L7.40085 11.7768C7.61463 11.9392 7.84957 12.0861 8.10607 12.2145C12.057 14.193 16.0198 9.50113 13.505 5.82237C13.4849 5.79289 13.4642 5.76365 13.443 5.73467ZM11.8894 5.87404C11.5189 5.58114 11.0701 5.36757 10.5567 5.26823C7.84409 4.74336 5.90834 7.86345 7.52075 10.1617C7.5319 10.1776 7.54316 10.1933 7.55456 10.2089L11.8894 5.87404ZM8.27376 10.9039L12.562 6.6157C13.2191 7.63439 13.2719 9.02532 12.4746 10.1617C11.5039 11.5454 9.58395 11.7928 8.27376 10.9039Z" fill="#5A6C76"/>
</svg>
