<?xml version="1.0" encoding="UTF-8"?> <svg xmlns="http://www.w3.org/2000/svg" width="26" height="26" viewBox="0 0 26 26" fill="none"> <g clip-path="url(#clip0_803_8003)"> <path d="M12.988 24.274C19.2767 24.274 24.3747 19.176 24.3747 12.8873C24.3747 6.59863 19.2767 1.50064 12.988 1.50064C6.69931 1.50064 1.60132 6.59863 1.60132 12.8873C1.60132 19.176 6.69931 24.274 12.988 24.274Z" fill="url(#paint0_radial_803_8003)"></path> <path fill-rule="evenodd" clip-rule="evenodd" d="M5.77378 23.8087C7.91201 25.2374 10.4259 26 12.9975 26C16.4452 25.9975 19.7509 24.6268 22.1888 22.1889C24.6267 19.751 25.9974 16.4453 25.9999 12.9976C25.9999 10.426 25.2373 7.9121 23.8086 5.77387C22.3799 3.63563 20.3492 1.96908 17.9733 0.984963C15.5974 0.000842512 12.9831 -0.256648 10.4609 0.245052C7.93866 0.746752 5.62186 1.98511 3.80344 3.80353C1.98502 5.62195 0.746661 7.93875 0.24496 10.461C-0.25674 12.9832 0.000750959 15.5975 0.984872 17.9734C1.96899 20.3493 3.63554 22.38 5.77378 23.8087ZM11.6694 15.1503C12.0952 15.4347 12.5957 15.5866 13.1078 15.5866C13.7944 15.5866 14.4529 15.3138 14.9385 14.8283C15.424 14.3428 15.6968 13.6843 15.6968 12.9976C15.6968 12.4856 15.5449 11.985 15.2604 11.5593C14.976 11.1335 14.5716 10.8017 14.0985 10.6057C13.6255 10.4098 13.1049 10.3585 12.6027 10.4584C12.1005 10.5583 11.6392 10.8049 11.2771 11.1669C10.915 11.529 10.6685 11.9903 10.5686 12.4925C10.4687 12.9947 10.5199 13.5153 10.7159 13.9884C10.9118 14.4614 11.2437 14.8658 11.6694 15.1503ZM19.8147 6.15646C20.739 7.08076 21.2583 8.33438 21.2583 9.64154V16.1475C21.2608 16.7964 21.1352 17.4393 20.8886 18.0395C20.6421 18.6397 20.2794 19.1853 19.8215 19.645C19.3636 20.1047 18.8194 20.4695 18.2202 20.7183C17.6209 20.9672 16.9785 21.0953 16.3296 21.0953H9.82843C9.17957 21.0953 8.5371 20.9672 7.93788 20.7183C7.33865 20.4695 6.79447 20.1047 6.33656 19.645C5.87864 19.1853 5.516 18.6397 5.26944 18.0395C5.02288 17.4393 4.89726 16.7964 4.89979 16.1475V9.64154C4.89979 8.33438 5.41905 7.08076 6.34335 6.15646C7.26765 5.23216 8.52127 4.7129 9.82843 4.7129H16.3296C17.6368 4.7129 18.8904 5.23216 19.8147 6.15646Z" fill="#1A1E21"></path> <path d="M17.3844 7.72378C17.1947 7.72378 17.0094 7.78002 16.8517 7.88538C16.694 7.99074 16.5711 8.1405 16.4985 8.31571C16.4259 8.49092 16.4069 8.68372 16.4439 8.86973C16.4809 9.05573 16.5723 9.22659 16.7064 9.36069C16.8405 9.49479 17.0113 9.58611 17.1973 9.62311C17.3833 9.66011 17.5761 9.64112 17.7513 9.56855C17.9266 9.49597 18.0763 9.37307 18.1817 9.21538C18.287 9.05769 18.3433 8.87231 18.3433 8.68266C18.3433 8.42835 18.2422 8.18445 18.0624 8.00463C17.8826 7.8248 17.6387 7.72378 17.3844 7.72378Z" fill="#1A1E21"></path> </g> <defs> <radialGradient id="paint0_radial_803_8003" cx="0" cy="0" r="1" gradientUnits="userSpaceOnUse" gradientTransform="translate(3.01285 1.50064) rotate(45.0715) scale(27.9954 19.4523)"> <stop stop-color="#FF9000"></stop> <stop offset="1" stop-color="#FFBF00"></stop> </radialGradient> <clipPath id="clip0_803_8003"> <rect width="26" height="26" fill="white"></rect> </clipPath> </defs> </svg> 