<svg width="36" height="25" viewBox="0 0 36 25" fill="none" xmlns="http://www.w3.org/2000/svg">
<path d="M13.5898 0V8.84848L17.729 10.7956C17.8381 10.8193 18.0746 10.821 18.1838 10.7956L35.9979 1.82305C35.9979 0.76116 34.672 0 33.9238 0H13.5898Z" fill="white"/>
<path d="M13.5902 12.1496L17.3677 14.0882C17.8998 14.3804 18.5412 14.0882 18.5412 14.0882C17.9021 14.3804 36.0005 5.39941 36.0005 5.39941V21.6624C36.0005 23.4328 34.4836 24.1753 32.7779 24.1753H13.5879V12.1496H13.5902Z" fill="white"/>
<path d="M22.4108 12.1496L18.6333 14.0882C18.1011 14.3804 17.4598 14.0882 17.4598 14.0882C18.0989 14.3804 0.000494003 5.39941 0.000494003 5.39941V21.6624C0.000494003 23.4328 1.51741 24.1753 3.22308 24.1753H22.4131V12.1496H22.4108Z" fill="white"/>
<path d="M22.5771 0.0166016V8.59848L18.438 10.8122C18.3289 10.8359 17.4324 10.8074 17.3232 10.7819L0.169109 1.83965C0.169109 0.777762 1.49499 0.0166016 2.24321 0.0166016H22.5771Z" fill="white"/>
</svg>
