<svg width="3219" height="2234" viewBox="0 0 3219 2234" fill="none" xmlns="http://www.w3.org/2000/svg">
<g clip-path="url(#clip0_804_4132)">
<path fill-rule="evenodd" clip-rule="evenodd" d="M708.644 2232.79C614.596 2226.15 496.682 2168.97 450.839 2107.78C397.258 2036.26 379.365 1934.2 391.547 1769.59C394.659 1727.53 401.836 1618.34 403.188 1592.46L403.976 1577.39H422.711C436.947 1577.39 441.439 1577.8 441.42 1579.07C441.332 1585.15 437.818 1633.54 436.349 1648.89C432.08 1693.48 431.784 1752.53 435.176 1882.1C439.222 2036.67 476.109 2119.18 560.454 2162.33C627.276 2196.51 684.938 2202.98 759.853 2184.68L1150.5 2183.67V2233.44H738.683C725.309 2233.31 711.791 2233.01 708.644 2232.79ZM738.397 2165.27C728.327 2163.92 710.304 2161.02 698.345 2158.82C686.387 2156.62 671.454 2154.13 665.16 2153.3C637.04 2149.59 597.122 2134.76 565.883 2116.42C528.221 2094.3 507.166 2066.45 493.582 2020.77C480.791 1977.76 478.129 1948.39 476.89 1836.56C476.375 1790.15 475.593 1730.48 475.152 1703.96C474.314 1653.53 475.204 1627.01 478.821 1594.68L480.755 1577.39H525.907L525.433 1582.42C525.172 1585.18 524.174 1605.22 523.214 1626.95C522.255 1648.68 519.962 1691.17 518.118 1721.37C506.905 1905.13 508.056 1953.36 524.865 2004.06C549.835 2079.38 660.085 2145.77 761.569 2146.61C762.594 2146.62 1150.5 2149.42 1150.5 2157.09V2167.81L759.853 2167.88C758.123 2167.79 748.467 2166.61 738.397 2165.27ZM745.263 2107.61C710.141 2103.69 668.181 2089.63 646.494 2074.5C590.187 2035.23 564.298 1989.77 558.273 1919.6C555.251 1884.39 554.366 1731.39 556.907 1682.99C557.655 1668.74 558.744 1648.04 559.329 1636.99C560.302 1618.61 562.969 1590.12 564.563 1581.08L565.213 1577.39H597.368L596.6 1587.1C596.178 1592.44 593.815 1619.72 591.349 1647.71C588.882 1675.7 586.203 1706.44 585.395 1716.02C574.886 1840.46 593.918 1944.74 637.152 1999.63C652.43 2019.03 694.58 2055.7 707.641 2060.96C716.35 2064.47 744.369 2072.44 754.703 2074.34L1150.5 2075.64V2108.88L759.281 2108.94C757.235 2108.84 750.927 2108.24 745.263 2107.61ZM741.83 2047.46C679.351 2013.06 641.636 1970.46 630.828 1922.08C621.453 1880.12 618.341 1722.22 625.051 1628.96C626.641 1606.86 627.949 1586.22 627.956 1583.09L627.969 1577.39H654.876L654.541 1602.51C654.356 1616.32 653.178 1656.85 651.923 1692.58C643.752 1925.2 652.67 1954.46 751.27 2018.6L1150.5 2025.99V2041.98C1150.5 2050.78 1150.11 2057.97 1149.64 2057.96C1149.17 2057.94 752.529 2053.35 741.83 2047.46ZM744.118 1976.6C688.48 1937.03 673.868 1879.02 682.187 1730.75C683.137 1713.81 684.282 1672.37 684.73 1638.67L685.545 1577.39H719.411L720.009 1581.75C720.337 1584.14 720.812 1633.11 721.066 1690.57C721.549 1800.3 721.852 1808.25 728.183 1877.41C732.399 1923.49 742.924 1951.15 758.793 1957.87L1150.5 1959.41V1974.54C1150.5 1982.86 1150.37 1989.61 1150.21 1989.53C1150.06 1989.45 754.188 1983.76 744.118 1976.6Z" fill="url(#paint0_linear_804_4132)"/>
<path fill-rule="evenodd" clip-rule="evenodd" d="M426.538 932.827C520.587 939.477 628.202 989.229 674.045 1050.48C727.625 1122.08 745.519 1224.24 733.337 1389.02C730.225 1431.12 723.048 1540.42 721.695 1566.33L720.908 1581.41H702.173C687.937 1581.41 685.477 1585.65 685.477 1580.74C685.565 1574.65 687.066 1525.21 688.535 1509.84C692.803 1465.2 693.1 1406.1 689.708 1276.4C685.662 1121.67 648.774 1039.07 564.43 995.879C497.608 961.661 419.901 973.008 371.887 951.243L354.382 943.43L361.384 927.804L365.885 922.782L386.487 927.804C405.897 930.595 423.392 932.604 426.538 932.827ZM386.487 992.938C396.557 994.282 414.58 997.186 426.538 999.393C438.497 1001.6 453.43 1004.08 459.724 1004.92C487.843 1008.63 527.762 1023.48 559.001 1041.84C596.663 1063.97 617.717 1091.85 631.302 1137.58C644.093 1180.63 646.755 1210.03 647.994 1321.98C648.509 1368.44 649.29 1428.17 649.732 1454.71C650.57 1505.2 660.783 1532.86 657.166 1565.22L655.232 1582.53H632.656L627.961 1585.76V1565.22C627.961 1553.49 628.591 1554.03 627.575 1529.79C624.527 1505.98 622.684 1450.72 624.527 1420.48C635.741 1236.54 616.827 1205.06 600.018 1154.31C575.049 1078.91 353.882 1029.37 342.879 1008.17C341.854 1008.16 336.877 1003.01 336.877 995.33L335.876 967.985L355.382 981.379C359.383 983.611 376.417 991.594 386.487 992.938ZM382.89 1042.21C418.4 1051.7 456.703 1068.66 478.39 1083.8C534.697 1123.11 560.586 1168.61 566.611 1238.86C569.633 1274.1 598.327 1400.93 598.477 1459.13C597.728 1473.39 602.593 1513.35 602.008 1524.42C601.036 1542.82 599.046 1568.9 597.452 1577.95L596.452 1585.21L580.046 1584.08H563.97L564.737 1574.36C565.16 1569.01 567.523 1541.71 569.989 1513.69C572.455 1485.67 569.181 1435.66 569.989 1426.07C545.785 1285.44 530.966 1213.69 487.731 1158.74C472.453 1139.33 471.416 1124.24 425.402 1091.88C416.693 1088.36 397.394 1080.16 371.887 1074.58L359.383 1073.46L361.884 1065.78V1049.14L370.18 1040.53C372.226 1040.63 375.888 1041.09 382.89 1042.21ZM383.39 1115.31C445.869 1149.75 483.248 1187.94 494.056 1236.37C503.43 1278.37 535.601 1436.43 528.891 1529.79C527.301 1551.91 525.993 1572.58 525.986 1575.71L525.973 1581.41L494.217 1580.4H480.764L481.099 1555.26C481.283 1541.44 471.706 1501.87 472.96 1466.11C481.132 1233.25 472.214 1203.96 373.613 1139.75L350.881 1130.94L339.378 1122.57C339.378 1113.76 335.876 1112.52 336.377 1109.18C336.849 1109.19 372.691 1109.42 383.39 1115.31ZM382.39 1179.49C431.74 1234.18 451.016 1279.48 442.696 1427.9C441.747 1444.86 440.602 1486.34 440.154 1520.07L441.134 1581.41H422.405L404.049 1582.53V1576.38C403.721 1573.98 404.072 1525.64 403.818 1468.12C403.335 1358.28 403.032 1350.32 396.701 1281.09C390.892 1245.34 383.39 1235.3 371.387 1219.67L361.884 1198.77V1183.62C361.884 1175.29 363.228 1162.11 363.384 1162.19C363.541 1162.27 372.32 1172.32 382.39 1179.49Z" fill="url(#paint1_linear_804_4132)"/>
<path fill-rule="evenodd" clip-rule="evenodd" d="M312.37 1186.48C155.324 1172.53 109.561 1136.37 63.9478 1075.64C10.6357 1004.65 -7.78424 902.796 2.91238 738.12C5.64418 696.044 11.8498 586.818 12.9775 560.929V4.1792L31.4215 3.99805C45.437 3.86055 48.0151 544.807 48.0071 546.079C47.9683 552.164 47.3929 601.661 46.0674 617.025C42.2166 661.644 42.3899 720.674 46.7497 850.171C51.9508 1004.66 88.9153 1086.79 172.29 1129.11C238.344 1162.64 315.871 1111.45 362.83 1161.93L382.39 1179.23L384.391 1198.48L371.651 1219.96C371.651 1219.96 356.745 1204.45 348.311 1198.48C339.878 1192.5 341.878 1189.1 312.37 1186.48ZM352.381 1131.5C342.457 1130.25 319.802 1126.36 308.013 1124.27C296.223 1122.18 281.502 1119.84 275.299 1119.07C247.587 1115.63 208.171 1101.19 177.273 1083.16C140.022 1061.42 119.075 1033.78 105.341 988.244C92.41 945.368 89.5583 916.033 87.4573 804.244C86.5848 757.854 85.3453 698.21 84.7015 671.703C83.4796 621.29 73.2072 593.761 76.5136 561.407L77.6249 2.42871L103.852 2.17139L104.149 561.713C104.241 573.432 104.732 572.311 105.923 596.507C109.112 620.263 111.361 675.433 109.784 705.644C100.193 889.45 119.06 920.711 136.008 971.233C161.182 1046.29 273.472 1112.11 373.387 1111.97C374.396 1111.97 371.591 1114.49 371.651 1122.16L371.736 1132.87L368.636 1132.73C366.932 1132.66 362.306 1132.74 352.381 1131.5ZM353.798 1072.62C319.191 1069.04 277.771 1055.39 256.302 1040.48C200.56 1001.76 174.715 956.568 168.231 886.474C164.978 851.303 135.732 724.923 135.126 666.799C135.751 652.546 130.647 612.683 131.136 601.63C131.949 583.244 131.525 13.0607 133.023 4.00733L133.634 0.318848L167.458 0L167.435 551.394C167.061 556.737 164.95 584.025 162.742 612.033C160.535 640.041 164.152 689.956 163.432 699.537C188.366 839.747 203.52 911.262 246.516 965.719C261.709 984.962 303.494 1021.22 316.393 1026.35C324.994 1029.77 352.641 1037.47 362.83 1039.27L371.01 1040.73L371.271 1073.96L367.609 1073.81C365.594 1073.74 359.379 1073.2 353.798 1072.62ZM346.38 1012.07C284.6 978.285 250.7 936.514 239.679 888.255C230.119 846.397 197.204 688.855 203.076 595.554C204.466 573.446 205.592 552.796 205.574 549.666L204.886 2.29639L236.157 2.99561L249.4 2.86572L249.925 569.654C249.852 583.463 259.592 622.886 258.639 658.615C252.427 891.242 261.808 919.885 359.383 983.053L373.387 989.75L370.744 1007.09C370.814 1015.88 370.491 1023.07 370.025 1023.06C369.56 1023.05 356.959 1017.86 346.38 1012.07ZM351.639 941.66C296.553 902.637 281.711 844.789 288.734 696.483C289.535 679.536 290.335 638.101 290.511 604.404L288.407 1.47705L306.845 1.29614L324.907 0.00292969L325.612 547.82C325.954 550.211 325.989 598.499 326.692 655.938C328.031 765.628 328.393 773.578 335.17 842.655C339.684 888.68 350.263 916.233 365.939 922.795L370.094 924.534L370.213 939.663C370.279 947.983 380.544 954.67 380.389 954.592C380.234 954.512 361.609 948.723 351.639 941.66Z" fill="url(#paint2_linear_804_4132)"/>
</g>
<g clip-path="url(#clip1_804_4132)">
<path fill-rule="evenodd" clip-rule="evenodd" d="M3214.5 1547C3207.58 1641.05 3118.59 1737.32 3054.83 1783.16C2980.31 1836.74 2873.96 1854.64 2702.45 1842.45C2658.63 1839.34 2544.86 1832.16 2517.89 1830.81L2502.19 1830.02V1811.29C2502.19 1797.05 2502.6 1792.56 2503.93 1792.58C2510.27 1792.67 2560.69 1796.18 2576.69 1797.65C2623.15 1801.92 2684.67 1802.22 2819.68 1798.82C2980.73 1794.78 3066.71 1757.89 3111.67 1673.55C3147.28 1606.72 3158 1556 3169.5 1465L3166.64 1247.5H3218.5V1492.17C3218.36 1505.54 3214.73 1543.85 3214.5 1547ZM3114.73 1495.6C3113.33 1505.67 3110.31 1523.7 3108.01 1535.65C3105.71 1547.61 3103.13 1562.55 3102.26 1568.84C3098.39 1596.96 3082.94 1636.88 3063.83 1668.12C3040.79 1705.78 3011.77 1726.83 2964.17 1740.42C2919.36 1753.21 2888.75 1755.87 2772.23 1757.11C2723.87 1757.63 2661.7 1758.41 2634.07 1758.85C2581.51 1759.69 2553.88 1758.8 2520.2 1755.18L2502.19 1753.25V1708.09L2507.42 1708.57C2510.3 1708.83 2531.18 1709.83 2553.82 1710.79C2576.46 1711.75 2620.74 1714.04 2652.21 1715.88C2843.67 1727.1 2909.08 1732.69 2961.91 1715.88C3102.26 1622.5 3087.08 1411.32 3122 1248C3122.01 1246.98 3130.96 1247.5 3138.95 1247.5H3150.12L3117.45 1474.15C3117.35 1475.88 3116.13 1485.53 3114.73 1495.6ZM3054.65 1488.74C3050.57 1523.86 3035.91 1565.82 3020.15 1587.51C2979.24 1643.81 2931.87 1669.7 2858.75 1675.73C2822.06 1678.75 2662.64 1679.63 2612.22 1677.09C2597.37 1676.35 2575.8 1675.26 2564.29 1674.67C2545.13 1673.7 2515.44 1671.03 2506.02 1669.44L2502.19 1668.79V1636.63L2512.3 1637.4C2517.87 1637.82 2546.29 1640.19 2575.45 1642.65C2604.62 1645.12 2636.65 1647.8 2646.63 1648.61C2776.29 1659.11 2884.95 1640.08 2942.14 1596.85C2962.35 1581.57 3000.56 1539.42 3006.04 1526.36C3009.7 1517.65 3018 1489.63 3019.99 1479.3L3054.08 1247.5H3088.71L3056.04 1474.72C3055.93 1476.77 3055.31 1483.07 3054.65 1488.74ZM2991.98 1492.17C2975.5 1543.5 2911.75 1592.36 2861.34 1603.17C2817.62 1612.55 2653.09 1615.66 2555.91 1608.95C2532.89 1607.36 2511.38 1606.05 2508.12 1606.04L2502.19 1606.03V1579.12L2528.35 1579.46C2542.74 1579.64 2584.98 1580.82 2622.2 1582.08C2864.58 1590.25 2947 1529.5 2961.91 1482.73L3002.35 1247.5H3019.01C3028.18 1247.5 3035.67 1247.89 3035.65 1248.36C3035.64 1248.83 3006.04 1452 2991.98 1492.17ZM2918.14 1489.88C2876.91 1545.52 2816.47 1560.13 2661.98 1551.81C2644.32 1550.86 2601.15 1549.72 2566.03 1549.27L2502.19 1548.46V1514.59L2506.72 1513.99C2509.22 1513.66 2560.24 1513.19 2620.11 1512.93C2734.44 1512.45 2742.73 1512.15 2814.79 1505.82C2862.8 1501.6 2874.87 1485.4 2893.5 1465C2893.5 1465 2915.76 1400.39 2923.5 1357.5C2931.16 1315.07 2932.97 1247.5 2932.97 1247.5H2948.74C2957.41 1247.5 2964.44 1247.63 2964.35 1247.79C2964.27 1247.94 2954 1441.5 2918.14 1489.88Z" fill="url(#paint3_linear_804_4132)"/>
<path fill-rule="evenodd" clip-rule="evenodd" d="M1830.57 1807.46C1837.5 1713.41 1889.34 1605.8 1953.17 1559.96C2027.77 1506.37 2134.22 1488.48 2305.9 1500.66C2349.77 1503.78 2463.66 1510.95 2490.66 1512.3L2506.37 1513.09V1531.83C2506.37 1546.06 2510.79 1548.52 2505.67 1548.52C2499.33 1548.43 2447.81 1546.93 2431.8 1545.47C2385.29 1541.2 2323.7 1540.9 2188.56 1544.29C2027.34 1548.34 1941.27 1585.23 1896.27 1669.57C1860.62 1736.39 1872.44 1814.1 1849.76 1862.11L1841.62 1879.62L1825.34 1872.62L1820.1 1868.12L1825.34 1847.51C1828.25 1828.1 1830.34 1810.61 1830.57 1807.46ZM1893.2 1847.51C1894.61 1837.44 1897.63 1819.42 1899.93 1807.46C1902.23 1795.5 1904.82 1780.57 1905.69 1774.28C1909.56 1746.16 1925.03 1706.24 1944.16 1675C1967.22 1637.34 1996.27 1616.28 2043.91 1602.7C2088.78 1589.91 2119.41 1587.25 2236.06 1586.01C2284.46 1585.49 2346.7 1584.71 2374.36 1584.27C2426.96 1583.43 2455.79 1573.22 2489.51 1576.83L2507.54 1578.77V1601.34L2510.91 1606.04H2489.51C2477.28 1606.04 2477.84 1605.41 2452.59 1606.42C2427.77 1609.47 2370.19 1611.32 2338.69 1609.47C2147.03 1598.26 2114.23 1617.17 2061.35 1633.98C1982.79 1658.95 1931.17 1880.12 1909.07 1891.12C1909.06 1892.15 1903.7 1897.12 1895.7 1897.12L1867.21 1898.12L1881.16 1878.62C1883.49 1874.62 1891.8 1857.58 1893.2 1847.51ZM1944.54 1851.11C1954.43 1815.6 1972.1 1777.3 1987.88 1755.61C2028.84 1699.3 2076.25 1673.41 2149.44 1667.39C2186.17 1664.37 2318.31 1635.67 2378.96 1635.52C2393.82 1636.27 2435.46 1631.41 2446.98 1631.99C2466.16 1632.96 2493.34 1634.95 2502.77 1636.55L2510.33 1637.55L2509.15 1653.95V1670.03L2499.02 1669.26C2493.45 1668.84 2465.01 1666.48 2435.81 1664.01C2406.61 1661.55 2354.5 1664.82 2344.51 1664.01C2197.98 1688.22 2123.22 1703.03 2065.97 1746.27C2045.74 1761.55 2030.02 1762.58 1996.29 1808.6C1992.64 1817.31 1984.08 1836.61 1978.27 1862.11L1977.1 1874.62L1969.1 1872.12H1951.77L1942.8 1863.82C1942.9 1861.77 1943.38 1858.11 1944.54 1851.11ZM2020.72 1850.61C2056.6 1788.13 2096.39 1750.75 2146.85 1739.94C2190.62 1730.57 2355.31 1698.4 2452.59 1705.11C2475.64 1706.7 2497.17 1708.01 2500.43 1708.01L2506.37 1708.03L2505.32 1739.78V1753.24L2479.13 1752.9C2464.72 1752.72 2423.5 1762.29 2386.23 1761.04C2143.61 1752.87 2113.08 1761.79 2046.18 1860.39L2037 1883.12L2028.28 1894.62C2019.1 1894.62 2017.81 1898.12 2014.32 1897.62C2014.33 1897.15 2014.57 1861.31 2020.72 1850.61ZM2087.59 1851.61C2144.57 1802.26 2191.77 1782.98 2346.42 1791.3C2364.09 1792.25 2407.31 1793.4 2442.46 1793.85L2506.37 1792.87V1811.6L2507.54 1829.95H2501.13C2498.63 1830.28 2448.26 1829.93 2388.33 1830.18C2273.88 1830.67 2265.58 1830.97 2193.45 1837.3C2156.2 1843.11 2145.74 1850.61 2129.45 1862.61L2107.67 1872.12H2091.89C2083.2 1872.12 2069.48 1870.77 2069.56 1870.62C2069.65 1870.46 2080.12 1861.68 2087.59 1851.61Z" fill="url(#paint4_linear_804_4132)"/>
<path fill-rule="evenodd" clip-rule="evenodd" d="M2094.87 1921.63C2080.33 2078.68 2042.65 2124.44 1979.37 2170.05C1905.41 2223.36 1799.28 2241.78 1627.69 2231.09C1583.85 2228.36 1470.04 2222.15 1443.07 2221.02L1155.77 2219.24L1155.58 2200.79C1155.44 2186.78 1154.67 2184.86 1156 2184.87C1162.34 2184.9 1485.51 2186.61 1501.52 2187.93C1548.01 2191.78 1609.52 2191.61 1744.45 2187.25C1905.42 2182.05 1990.99 2145.09 2035.09 2061.71C2070.03 1995.66 2016.69 1918.13 2069.28 1871.17L2087.31 1851.61L2107.37 1849.61L2129.76 1862.35C2129.76 1862.35 2113.6 1877.26 2107.37 1885.69C2101.14 1894.12 2097.6 1892.12 2094.87 1921.63ZM2037.58 1881.62C2036.28 1891.54 2032.22 1914.2 2030.05 1925.99C2027.87 1937.78 2025.44 1952.5 2024.63 1958.7C2021.05 1986.41 2006 2025.83 1987.21 2056.73C1964.56 2093.98 1935.76 2114.93 1888.31 2128.66C1843.64 2141.59 1813.07 2144.44 1696.59 2146.54C1648.26 2147.42 1586.11 2148.66 1558.49 2149.3C1505.96 2150.52 1477.28 2160.79 1443.57 2157.49L1153.95 2154.59L1153.68 2128.36L1443.89 2129.85C1456.1 2129.76 1454.93 2129.27 1480.14 2128.08C1504.89 2124.89 1562.38 2122.64 1593.86 2124.22C1785.38 2133.81 1817.95 2114.94 1870.59 2097.99C1948.79 2072.82 2017.38 1960.53 2017.23 1860.61C2017.23 1859.6 2019.86 1862.41 2027.85 1862.35L2039.01 1862.26L2038.87 1865.36C2038.79 1867.07 2038.88 1871.7 2037.58 1881.62ZM1976.23 1880.2C1972.5 1914.81 1958.27 1956.23 1942.74 1977.7C1902.4 2033.44 1855.31 2059.29 1782.27 2065.77C1745.63 2069.02 1613.94 2098.27 1553.38 2098.87C1538.53 2098.25 1496.99 2103.35 1485.48 2102.86C1466.32 2102.05 1165.02 2100.69 1155.59 2099.19L1151.75 2098.58L1151.42 2064.76L1433.13 2066.57C1438.7 2066.94 1467.13 2069.05 1496.32 2071.26C1525.5 2073.47 1577.51 2069.85 1587.49 2070.57C1733.59 2045.63 1808.1 2030.48 1864.84 1987.48C1884.89 1972.29 1922.67 1930.51 1928.02 1917.61C1931.58 1909.01 1939.6 1881.36 1941.49 1871.17L1943 1862.99L1977.63 1862.73L1977.47 1866.39C1977.39 1868.41 1976.83 1874.62 1976.23 1880.2ZM1913.14 1887.62C1877.94 1949.4 1834.41 1983.3 1784.13 1994.32C1740.52 2003.88 1576.36 2036.8 1479.15 2030.92C1456.11 2029.53 1434.59 2028.41 1431.33 2028.43L1153.81 2027.33L1154.54 1996.06L1154.4 1982.82L1452.16 1984.08C1466.55 1984.15 1507.62 1974.41 1544.85 1975.36C1787.24 1981.57 1817.09 1972.19 1882.91 1874.62L1889.88 1860.61L1907.95 1863.26C1917.11 1863.19 1924.6 1863.51 1924.59 1863.98C1924.58 1864.44 1919.17 1877.04 1913.14 1887.62ZM1839.78 1882.36C1799.12 1937.45 1738.84 1952.29 1584.31 1945.27C1566.65 1944.47 1523.48 1943.67 1488.37 1943.49L1152.95 1943.81L1152.77 1925.37L1151.42 1907.31L1429.41 1908.39C1431.9 1908.05 1482.21 1908.01 1542.06 1907.31C1656.36 1905.97 1664.64 1905.61 1736.62 1898.83C1784.57 1894.32 1813.28 1883.74 1820.12 1868.06L1821.93 1863.91L1837.69 1863.79C1846.36 1863.72 1853.33 1853.46 1853.25 1853.61C1853.17 1853.77 1847.13 1872.39 1839.78 1882.36Z" fill="url(#paint5_linear_804_4132)"/>
</g>
<defs>
<linearGradient id="paint0_linear_804_4132" x1="1268.66" y1="1937.52" x2="-247.692" y2="562.115" gradientUnits="userSpaceOnUse">
<stop offset="0.0330048" stop-color="#242A2E" stop-opacity="0"/>
<stop offset="0.0898669" stop-color="#242A2E" stop-opacity="0.11"/>
<stop offset="0.285831" stop-color="#242A2E"/>
<stop offset="0.737461" stop-color="#242A2E"/>
<stop offset="0.922296" stop-color="#242A2E" stop-opacity="0.15"/>
<stop offset="1" stop-color="#242A2E" stop-opacity="0"/>
</linearGradient>
<linearGradient id="paint1_linear_804_4132" x1="1268.66" y1="1937.52" x2="-247.692" y2="562.115" gradientUnits="userSpaceOnUse">
<stop offset="0.0330048" stop-color="#242A2E" stop-opacity="0"/>
<stop offset="0.0898669" stop-color="#242A2E" stop-opacity="0.11"/>
<stop offset="0.285831" stop-color="#242A2E"/>
<stop offset="0.737461" stop-color="#242A2E"/>
<stop offset="0.922296" stop-color="#242A2E" stop-opacity="0.15"/>
<stop offset="1" stop-color="#242A2E" stop-opacity="0"/>
</linearGradient>
<linearGradient id="paint2_linear_804_4132" x1="1268.66" y1="1937.52" x2="-247.692" y2="562.115" gradientUnits="userSpaceOnUse">
<stop offset="0.0330048" stop-color="#242A2E" stop-opacity="0"/>
<stop offset="0.0898669" stop-color="#242A2E" stop-opacity="0.11"/>
<stop offset="0.285831" stop-color="#242A2E"/>
<stop offset="0.737461" stop-color="#242A2E"/>
<stop offset="0.922296" stop-color="#242A2E" stop-opacity="0.15"/>
<stop offset="1" stop-color="#242A2E" stop-opacity="0"/>
</linearGradient>
<linearGradient id="paint3_linear_804_4132" x1="3023" y1="1222.5" x2="1185" y2="2036" gradientUnits="userSpaceOnUse">
<stop stop-color="#242A2E" stop-opacity="0"/>
<stop offset="0.109536" stop-color="#242A2E" stop-opacity="0.11"/>
<stop offset="0.285831" stop-color="#242A2E"/>
<stop offset="0.737461" stop-color="#242A2E"/>
<stop offset="0.922296" stop-color="#242A2E" stop-opacity="0.15"/>
<stop offset="1" stop-color="#242A2E" stop-opacity="0"/>
</linearGradient>
<linearGradient id="paint4_linear_804_4132" x1="3023" y1="1222.5" x2="1185" y2="2036" gradientUnits="userSpaceOnUse">
<stop stop-color="#242A2E" stop-opacity="0"/>
<stop offset="0.109536" stop-color="#242A2E" stop-opacity="0.11"/>
<stop offset="0.285831" stop-color="#242A2E"/>
<stop offset="0.737461" stop-color="#242A2E"/>
<stop offset="0.922296" stop-color="#242A2E" stop-opacity="0.15"/>
<stop offset="1" stop-color="#242A2E" stop-opacity="0"/>
</linearGradient>
<linearGradient id="paint5_linear_804_4132" x1="3023" y1="1222.5" x2="1185" y2="2036" gradientUnits="userSpaceOnUse">
<stop stop-color="#242A2E" stop-opacity="0"/>
<stop offset="0.109536" stop-color="#242A2E" stop-opacity="0.11"/>
<stop offset="0.285831" stop-color="#242A2E"/>
<stop offset="0.737461" stop-color="#242A2E"/>
<stop offset="0.922296" stop-color="#242A2E" stop-opacity="0.15"/>
<stop offset="1" stop-color="#242A2E" stop-opacity="0"/>
</linearGradient>
<clipPath id="clip0_804_4132">
<rect width="1151" height="2234" fill="white"/>
</clipPath>
<clipPath id="clip1_804_4132">
<rect width="2068" height="987" fill="white" transform="translate(1151 1247)"/>
</clipPath>
</defs>
</svg>
