<svg width="36" height="36" viewBox="0 0 36 36" fill="none" xmlns="http://www.w3.org/2000/svg">
<path fill-rule="evenodd" clip-rule="evenodd" d="M18 3.375C9.92285 3.375 3.375 9.92285 3.375 18C3.375 26.0772 9.92284 32.625 18 32.625C26.0772 32.625 32.625 26.0772 32.625 18C32.625 9.92284 26.0772 3.375 18 3.375ZM0 18C0 8.05888 8.05888 0 18 0C27.9412 0 36 8.05889 36 18C36 27.9412 27.9412 36 18 36C8.05889 36 0 27.9412 0 18ZM11.7443 11.7443C12.4033 11.0852 13.4717 11.0852 14.1307 11.7443L18 15.6135L21.8693 11.7443C22.5283 11.0852 23.5967 11.0852 24.2557 11.7443C24.9148 12.4033 24.9148 13.4717 24.2557 14.1307L20.3865 18L24.2557 21.8693C24.9148 22.5283 24.9148 23.5967 24.2557 24.2557C23.5967 24.9148 22.5283 24.9148 21.8693 24.2557L18 20.3865L14.1307 24.2557C13.4717 24.9148 12.4033 24.9148 11.7443 24.2557C11.0852 23.5967 11.0852 22.5283 11.7443 21.8693L15.6135 18L11.7443 14.1307C11.0852 13.4717 11.0852 12.4033 11.7443 11.7443Z" fill="#474E54"/>
</svg>
