<svg width="13" height="21" viewBox="0 0 13 21" fill="none" xmlns="http://www.w3.org/2000/svg">
<path d="M6.50026 3.75764C7.63949 3.75764 8.56617 4.68431 8.56617 5.82354C8.56617 6.96182 7.63926 7.88849 6.50026 7.88849C5.36175 7.88849 4.43484 6.96182 4.43484 5.82354C4.4346 4.68407 5.36199 3.75764 6.50026 3.75764ZM6.50026 10.8113C9.25209 10.8113 11.49 8.57418 11.49 5.82354C11.49 3.07147 9.25233 0.833374 6.50026 0.833374C3.74867 0.833374 1.51057 3.07171 1.51057 5.82354C1.51057 8.57418 3.74867 10.8113 6.50026 10.8113ZM8.51888 14.8813C9.54534 14.6475 10.5249 14.2419 11.4162 13.6816C11.7443 13.4752 11.9769 13.1469 12.063 12.7689C12.149 12.3909 12.0814 11.9942 11.875 11.6661C11.7729 11.5035 11.6397 11.3626 11.4831 11.2514C11.3265 11.1403 11.1496 11.0612 10.9623 11.0185C10.7751 10.9758 10.5813 10.9704 10.392 11.0027C10.2028 11.035 10.0217 11.1043 9.85921 11.2066C7.81504 12.4917 5.18406 12.4908 3.14156 11.2066C2.9791 11.1043 2.79805 11.035 2.60878 11.0027C2.41951 10.9704 2.22572 10.9757 2.03852 11.0184C1.85132 11.0611 1.67437 11.1403 1.51779 11.2514C1.36122 11.3625 1.2281 11.5035 1.12605 11.6661C0.91956 11.9941 0.851817 12.3907 0.937721 12.7687C1.02363 13.1467 1.25614 13.4751 1.58413 13.6816C2.47533 14.2417 3.45469 14.6473 4.48093 14.8813L1.69161 17.6711C1.41749 17.9453 1.26354 18.3171 1.2636 18.7049C1.26367 19.0926 1.41776 19.4644 1.69197 19.7385C1.96618 20.0126 2.33805 20.1666 2.72577 20.1665C3.11349 20.1665 3.48531 20.0124 3.75942 19.7382L6.49979 16.9973L9.24182 19.7384C9.3774 19.8742 9.53842 19.9819 9.71566 20.0554C9.8929 20.1289 10.0829 20.1667 10.2748 20.1667C10.4666 20.1667 10.6566 20.1289 10.8339 20.0554C11.0111 19.9819 11.1721 19.8742 11.3077 19.7384C11.4437 19.6028 11.5516 19.4418 11.6252 19.2644C11.6988 19.0871 11.7367 18.897 11.7367 18.705C11.7367 18.513 11.6988 18.3228 11.6252 18.1455C11.5516 17.9682 11.4437 17.8071 11.3077 17.6715L8.51888 14.8813Z" fill="white"/>
</svg>
