<svg width="25" height="30" viewBox="0 0 25 30" fill="none" xmlns="http://www.w3.org/2000/svg">
<path fill-rule="evenodd" clip-rule="evenodd" d="M8.68307 25.5332C8.87726 25.5254 9.06513 25.4606 9.22421 25.3467C9.38329 25.2328 9.50686 25.0745 9.58014 24.8909C9.65342 24.7072 9.67331 24.5059 9.63743 24.311C9.60155 24.1161 9.51143 23.9358 9.37783 23.7918C8.96862 23.3834 6.71796 21.6787 6.13112 21.0088C5.85907 20.6968 5.48808 20.5499 5.33294 20.1943C4.97319 19.389 4.72812 18.2418 5.1778 17.4182C5.25874 17.269 5.3127 17.3356 5.24975 17.6476C4.89 19.4074 6.01421 20.8436 6.25928 20.1071C6.43016 19.5978 6.27277 18.6869 6.36496 17.9642C6.5246 16.684 7.66679 14.2268 8.16369 14.0868C7.39023 12.6253 9.06305 11.4805 9.04956 10.1865C9.03607 9.35134 9.76905 11.212 10.5043 11.6067C11.3249 12.0472 12.2288 10.7761 13.5082 10.1314C13.8724 9.95015 14.3356 9.73908 14.3041 9.58306C14.1557 8.83282 12.6223 10.5008 11.253 10.565C10.6279 10.5903 10.3964 10.4411 10.1558 10.2025C9.42729 9.48441 10.23 10.0832 11.3137 9.88362C11.7132 9.80725 12.1016 9.67927 12.4694 9.50276C13.0141 9.24025 13.5734 9.01043 14.1445 8.81446C14.5469 8.70204 14.5132 8.39231 14.3693 8.30053C14.2794 8.24777 14.1445 8.25235 14.0388 8.43819C13.7915 8.87641 12.6223 9.12649 12.258 9.2435C11.7172 9.43619 11.1466 9.52714 10.574 9.51194C9.52847 9.46835 9.77355 8.97966 9.02483 8.54144C8.79999 8.41525 8.86519 8.08257 9.15748 7.77972C9.31038 7.62371 9.72633 7.53652 9.93543 7.1832C10.0837 7.00165 10.2536 6.83978 10.4413 6.70139C10.5133 6.64862 10.52 5.34774 9.86573 5.3248C9.30813 5.30185 9.15074 5.74236 9.17322 6.18058C9.19571 6.6188 9.42504 6.979 9.57569 6.979C9.86798 6.979 9.59367 7.3048 9.43404 7.35757C9.19121 7.43787 8.85845 6.38248 8.89667 5.87543C8.93489 5.36839 9.20695 4.41166 9.86124 4.43001C10.4526 4.44607 10.8798 5.2009 10.8573 6.4949C10.8573 6.72433 11.8151 6.38936 12.1344 6.73581C12.3592 6.9813 11.3497 4.44148 13.6071 4.25335C14.2029 4.37036 14.774 4.57226 15.0123 5.96721C14.9247 6.11175 15.1607 7.08684 14.7875 7.20155C14.3378 7.3438 14.0635 7.1809 14.3221 6.74269C14.4997 6.30677 14.3221 5.19402 13.4227 5.26056C12.5234 5.32709 12.6358 6.96983 12.8831 7.00195C13.1304 7.03407 13.76 7.48834 14.1962 7.57553C15.6307 7.86002 14.5761 8.69975 14.7628 9.71613C14.9741 10.8633 15.7138 10.5604 16.3794 13.5981C16.5188 13.784 17.0696 13.9583 17.607 16.294C18.0904 18.3933 17.4069 19.9213 18.5693 19.7974C18.7612 19.794 18.9462 19.724 19.0937 19.5989C19.2413 19.4737 19.3427 19.3009 19.381 19.1091C19.8149 17.5535 19.1562 15.6997 18.5019 14.4493C18.258 13.9398 17.943 13.4692 17.5665 13.0521C18.322 13.5109 19.2866 14.9632 19.5114 16.0347C19.8037 17.4549 20.0128 18.0537 19.5699 19.5565C19.8239 19.685 20.4692 19.9626 20.4692 20.27C19.8082 19.7148 17.7711 19.6161 17.7262 20.9446C17.3822 20.9446 17.1191 20.9813 16.8965 21.252C16.0826 22.2386 16.838 24.2208 16.7571 25.2831C16.6829 26.2192 16.4288 27.1461 16.2849 28.0868C15.7993 28.0684 15.8487 27.7059 16.0039 27.1966C16.141 26.7377 16.3614 26.1848 16.3771 25.6456C16.3906 25.1592 16.3367 24.8541 16.2175 24.7784C16.0983 24.7027 15.9072 24.8564 15.6464 25.2854C15.091 26.2031 13.8836 26.6024 12.7572 26.7469C11.6307 26.8914 10.583 26.7767 10.0299 26.1412C9.841 25.9255 9.52622 26.2008 9.488 26.2582C9.44978 26.3156 9.67237 26.4876 9.84774 26.8157C10.1041 27.2975 10.3491 28.0271 9.73982 28.3598C9.73982 26.6666 9.22269 26.5656 8.68532 25.5309L8.68307 25.5332ZM8.2806 25.4873C8.68307 26.1366 10.1063 28.8668 7.60608 29.2202C6.77192 29.3395 5.42962 28.7269 4.12779 28.4011C2.95862 28.1097 1.77146 27.9422 1.10818 27.7472C0.707962 27.6325 0.541579 27.4857 0.505605 27.3136C0.41342 26.8547 0.991261 26.2261 1.02049 25.6892C1.04972 25.1523 0.829376 24.8747 0.649503 24.4365C0.46963 23.9983 0.424662 23.6679 0.564064 23.4798C0.678732 23.3352 0.90807 23.2733 1.28131 23.31C1.74321 23.3657 2.21112 23.2861 2.63035 23.0806C3.14749 22.7571 3.39031 22.0986 3.15873 21.3048C3.15873 22.0802 2.90915 22.3762 2.28185 22.7318C1.69276 23.0668 0.782159 22.7961 0.361707 23.1655C-0.141937 23.6243 0.541579 24.7715 0.487618 25.6089C0.442649 26.2582 -0.220631 26.9855 0.0761588 27.6417C0.372949 28.2979 1.76247 28.369 3.22393 28.6787C5.28347 29.1192 6.48413 29.8832 7.43745 29.9199C8.82472 29.9727 9.03832 28.5181 11.217 28.4975C11.8533 28.463 12.4761 28.4447 13.0967 28.4355C13.8004 28.4355 14.5042 28.4355 15.2259 28.4516C16.6762 28.486 16.177 29.2592 17.1191 29.7525C17.9128 30.1677 19.3405 30.0048 19.6823 29.6722C20.1455 29.2133 21.3866 28.1396 22.3377 27.6509C23.5226 27.0406 26.3061 25.9921 24.2848 24.7118C23.8149 24.4159 22.7109 24.0992 22.6075 21.9196C22.1848 22.3005 22.2342 24.3333 23.4101 24.7371C24.7255 25.1959 25.5461 25.9416 23.1021 26.802C21.4855 27.3664 21.2112 27.5407 19.9296 28.6374C18.648 29.7341 16.7121 29.3005 17.0472 26.9832C17.2225 25.7764 17.3237 24.7784 17.0292 23.7299C16.8716 23.2018 16.8317 22.6444 16.9122 22.0986C17.1034 21.2015 17.5868 20.9331 18.0365 21.7935C18.331 22.3326 18.4322 22.9659 19.4799 23.0163C21.1258 23.0966 21.4518 21.3942 21.9779 21.3162C22.3287 21.2635 22.6794 20.2517 22.4119 18.6112C22.1263 16.8561 21.1145 14.0845 19.8172 12.6804C18.7402 11.4736 18.0612 10.4595 17.634 8.99801C17.2661 7.84756 17.1017 6.63953 17.1483 5.43034C17.2428 3.9505 16.4378 1.89019 15.1585 0.919696C14.3558 0.313994 13.0989 0.00196618 11.9612 0.00196618C11.3742 -0.0173066 10.791 0.105334 10.2592 0.359881C8.3593 1.41298 8.10073 2.91576 8.12321 4.63191C8.1502 6.23794 8.20416 8.0734 8.38403 9.83085C8.17043 10.6362 7.06421 12.1573 6.36046 13.0842C5.40264 14.0455 4.92373 15.8993 4.30766 17.5214C3.9794 18.3841 3.42404 18.7741 3.37907 19.8846C3.36558 20.1966 3.37907 20.9996 3.66687 20.7702C4.77983 19.8915 6.17384 22.1078 8.2806 25.4873ZM14.059 2.25729C14.0006 2.44083 13.7532 2.59455 13.9106 2.71615C14.068 2.83775 14.1557 2.5349 14.4727 2.42018C14.5537 2.39036 14.9224 2.43395 15.0033 2.24811C15.0326 2.16781 14.8077 2.07833 14.6728 1.94526C14.5379 1.81219 14.4053 1.69747 14.2794 1.71583C13.9533 1.73647 14.113 2.09898 14.0545 2.25958L14.059 2.25729ZM15.9949 8.94983C16.1141 8.82364 16.1725 9.16779 16.4895 9.37198C16.7414 9.53259 16.9842 9.41328 17.0472 9.73908C17.0921 9.96851 16.9505 10.2278 16.7571 10.1979C16.4198 10.1291 15.6486 9.31233 15.9949 8.94983ZM10.7718 6.88494C10.2502 6.84593 10.2142 7.22909 10.3874 7.2245C10.5605 7.21991 10.4548 6.91935 10.7718 6.88494ZM9.87248 5.90297C9.93318 5.8892 10.0209 5.99703 9.99389 6.14616C9.95567 6.35495 9.97141 6.48572 10.1131 6.48572C10.1378 6.48572 10.1625 6.48572 10.1715 6.42837C10.205 6.29536 10.2017 6.15549 10.162 6.02428C10.1223 5.89306 10.0478 5.77563 9.94668 5.68501C9.74657 5.63453 9.7713 5.92591 9.87698 5.91444L9.87248 5.90297ZM13.6633 5.7286C13.796 5.7676 13.9219 6.00162 13.9511 6.254C13.9511 6.27694 14.122 6.21729 14.1242 6.16223C14.1358 6.03079 14.1019 5.89937 14.0283 5.79081C13.9548 5.68225 13.8463 5.60341 13.7218 5.568C13.5171 5.58635 13.5756 5.68959 13.679 5.72171L13.6633 5.7286ZM11.7207 6.93541C12.1928 6.70598 12.3592 7.05701 12.1951 7.11437C12.031 7.17173 12.0265 6.85282 11.7207 6.93541ZM6.00521 15.1629C5.78037 15.1353 6.07042 14.9632 6.19408 14.7476C6.31774 14.5319 6.302 14.213 6.44365 14.2566C6.5853 14.3002 6.50661 14.4677 6.40993 14.7384C6.32674 14.9678 6.0884 15.172 6.00521 15.1629Z" fill="white"/>
</svg>
