<svg width="26" height="31" viewBox="0 0 26 31" fill="none" xmlns="http://www.w3.org/2000/svg">
<path d="M13.1905 8.73923C12.0055 8.73923 10.1712 7.39233 8.23945 7.44101C5.69088 7.47347 3.35333 8.91773 2.03846 11.2058C-0.607509 15.7983 1.35668 22.5815 3.93772 26.3138C5.20389 28.1313 6.69732 30.176 8.67774 30.1111C10.577 30.03 11.2912 28.8778 13.5963 28.8778C15.8852 28.8778 16.5345 30.1111 18.5474 30.0624C20.5927 30.03 21.8914 28.2125 23.1413 26.3788C24.586 24.2691 25.1866 22.2245 25.2191 22.1109C25.1704 22.0946 21.242 20.5855 21.1933 16.0417C21.1609 12.2444 24.2938 10.4269 24.4399 10.3458C22.6543 7.73311 19.9109 7.44101 18.9532 7.3761C16.4533 7.18137 14.3593 8.73923 13.1905 8.73923ZM17.4111 4.90949C18.4662 3.64373 19.1642 1.87491 18.9694 0.122314C17.4598 0.187225 15.6417 1.12843 14.5541 2.39419C13.5801 3.51391 12.736 5.31518 12.9632 7.03532C14.6352 7.16514 16.3559 6.17525 17.4111 4.90949Z" fill="white"/>
</svg>
