<svg width="38" height="18" viewBox="0 0 38 18" fill="none" xmlns="http://www.w3.org/2000/svg">
<path fill-rule="evenodd" clip-rule="evenodd" d="M11.7026 12.1318H9.42126V5.49023H8.5752V12.7876H9.42126V12.7831H11.7026V12.1318Z" fill="white"/>
<path fill-rule="evenodd" clip-rule="evenodd" d="M16.1982 9.43783H11.3818V8.72077H16.9037C16.911 8.85945 16.9146 8.99837 16.9146 9.13894C16.9146 13.4572 13.414 16.9576 9.09597 16.9576C4.77795 16.9576 1.27734 13.4572 1.27734 9.13894C1.27734 4.82068 4.77795 1.32031 9.09621 1.32031C9.21004 1.32031 9.32363 1.32268 9.43652 1.32765L9.43557 2.03951C9.32253 2.03429 9.20938 2.03169 9.09621 2.0317C5.17104 2.0317 1.98873 5.21377 1.98873 9.13894C1.98873 13.0643 5.1708 16.2462 9.09621 16.2462C12.9144 16.2462 16.0293 13.2357 16.1964 9.45842L16.1982 9.43783Z" fill="white"/>
<path fill-rule="evenodd" clip-rule="evenodd" d="M6.48975 7.5752C6.76623 7.5752 7.03139 7.46537 7.2269 7.26986C7.4224 7.07436 7.53223 6.8092 7.53223 6.53272C7.53223 6.25623 7.4224 5.99107 7.2269 5.79557C7.03139 5.60007 6.76623 5.49023 6.48975 5.49023C6.21327 5.49023 5.94811 5.60007 5.7526 5.79557C5.5571 5.99107 5.44727 6.25623 5.44727 6.53272C5.44727 6.8092 5.5571 7.07436 5.7526 7.26986C5.94811 7.46537 6.21327 7.5752 6.48975 7.5752Z" fill="white"/>
<path fill-rule="evenodd" clip-rule="evenodd" d="M23.1699 13.5955H29.2946V11.65H25.4188V4.6826H23.1699V13.5955V13.5955ZM36.6949 5.31014C35.9925 4.73788 35.0886 4.44775 34.0094 4.44775C32.7281 4.44775 31.6578 4.8617 30.9137 5.64391C30.1366 6.46152 29.7255 7.6659 29.7255 9.12682C29.7255 10.6874 30.1603 12.0046 30.9498 12.8343C31.5692 13.4858 32.3953 13.8301 33.3401 13.8301C35.4144 13.8301 35.8915 12.5222 35.8915 12.5222V13.5953H37.7647V8.56141H34.0361V10.1366H35.7523C35.7523 10.1366 35.7688 12.1195 33.9975 12.1195C33.5475 12.1195 33.1466 11.9477 32.8382 11.6233C32.3575 11.1182 32.1034 10.2672 32.1034 9.1636C32.1034 7.33602 32.7941 6.24495 33.9503 6.24495C34.6727 6.24495 35.2156 6.71144 35.3549 7.41849H37.7404C37.6166 6.39139 37.3486 5.85591 36.6949 5.31014Z" fill="white"/>
</svg>
