<svg width="28" height="33" viewBox="0 0 28 33" fill="none" xmlns="http://www.w3.org/2000/svg">
<path d="M25.5431 11.3826C24.4567 11.3826 23.5643 12.2747 23.5643 13.3607V21.603C23.5643 22.689 24.4567 23.5811 25.5431 23.5811C26.6295 23.5811 27.5219 22.689 27.5219 21.603V13.3607C27.5219 12.265 26.6295 11.3826 25.5431 11.3826ZM2.4573 11.3826C1.37091 11.3826 0.478516 12.2747 0.478516 13.3607V21.603C0.478516 22.689 1.37091 23.5811 2.4573 23.5811C3.54369 23.5811 4.43608 22.689 4.43608 21.603V13.3607C4.43608 12.265 3.54369 11.3826 2.4573 11.3826ZM22.8271 11.722V24.512C22.8271 25.695 21.8765 26.6453 20.6931 26.6453H19.2769V31.0088C19.2769 32.0949 18.3845 32.987 17.2982 32.987C16.2118 32.987 15.3194 32.0949 15.3194 31.0088V26.6453H12.681V31.0088C12.681 32.0949 11.7886 32.987 10.7022 32.987C9.61583 32.987 8.72344 32.0949 8.72344 31.0088V26.6453H7.30725C6.12386 26.6453 5.17327 25.695 5.17327 24.512V11.722H22.8271ZM18.3263 3.93544L19.7231 1.41428C19.8007 1.27852 19.7522 1.10398 19.6164 1.0361C19.5776 1.01671 19.5291 0.997314 19.4806 0.997314C19.3836 0.997314 19.2866 1.0458 19.2381 1.14277L17.822 3.68332C16.6677 3.16939 15.3679 2.87849 14.0002 2.87849C12.6325 2.87849 11.3327 3.16939 10.1784 3.68332L8.77194 1.14277C8.69434 1.00701 8.52944 0.958527 8.39364 1.0361C8.25784 1.11368 8.20934 1.27852 8.28694 1.41428L9.68373 3.93544C6.99685 5.33177 5.19267 7.979 5.18297 11.0238H22.8368C22.8271 7.979 21.0132 5.33177 18.3263 3.93544ZM9.92623 7.79476C9.51883 7.79476 9.18903 7.46507 9.18903 7.0578C9.18903 6.65054 9.51883 6.32085 9.92623 6.32085C10.3336 6.32085 10.6634 6.65054 10.6634 7.0578C10.6634 7.46507 10.3336 7.79476 9.92623 7.79476ZM18.0741 7.79476C17.6668 7.79476 17.337 7.46507 17.337 7.0578C17.337 6.65054 17.6668 6.32085 18.0741 6.32085C18.4815 6.32085 18.8113 6.65054 18.8113 7.0578C18.8113 7.46507 18.4815 7.79476 18.0741 7.79476Z" fill="white"/>
</svg>
