<svg width="48" height="48" viewBox="0 0 48 48" fill="none" xmlns="http://www.w3.org/2000/svg">
<path d="M37.8869 25.7599L37.8217 21H39V27H37.3068L36.1304 22.0764H36.1055L36.1707 27H35V21H36.767L37.861 25.7599H37.8869Z" fill="#FAFAFA"/>
<path d="M10.997 21.5561L9.98813 27H8L9.3635 21H12.6395L14 27H12.0178L11.0371 21.5561H10.997Z" fill="#FAFAFA"/>
<path d="M18.0163 25.5867L18.6829 21H20.8837L21 27H19.6517L19.6158 21.6057H19.5875L18.6861 27H17.3171L16.4136 21.6057H16.3853L16.3516 27H15L15.1196 21H17.3215L17.987 25.5867H18.0163Z" fill="#FAFAFA"/>
<path d="M6.21075 25.1983C6.27901 25.3338 6.25811 25.5087 6.22607 25.6137C6.16757 25.8 6.01156 25.9897 5.55328 25.9897C5.11868 25.9897 4.8568 25.7876 4.8568 25.4817V24.9398H3.00139L3 25.3733C3 26.6218 4.21326 27 5.51428 27C6.76515 27 7.79454 26.6534 7.95751 25.7199C8.04248 25.2356 7.97841 24.9195 7.95055 24.7987C7.65942 23.6258 5.0351 23.2758 4.84009 22.6199C4.80666 22.5082 4.81641 22.3885 4.83312 22.3242C4.88188 22.1458 5.03232 21.9494 5.46413 21.9494C5.86809 21.9494 6.10628 22.1526 6.10628 22.4574C6.10628 22.5601 6.10628 22.804 6.10628 22.804H7.82936V22.4111C7.82936 21.1908 6.4782 21 5.49895 21C4.26898 21 3.26466 21.3296 3.08079 22.2406C3.03065 22.4924 3.02368 22.717 3.09611 22.9981C3.39978 24.1405 5.85416 24.4724 6.21075 25.1983Z" fill="#FAFAFA"/>
<path d="M25.5692 25.2003C25.6244 25.3361 25.6064 25.5083 25.5816 25.6143C25.5355 25.8025 25.4106 25.9907 25.0426 25.9907C24.6971 25.9907 24.4866 25.7865 24.4866 25.4843L24.4855 24.9415H23.0023L23 25.3737C23 26.6225 23.9712 27 25.0111 27C26.0104 27 26.8342 26.6544 26.9647 25.7204C27.0334 25.2346 26.985 24.9198 26.9602 24.8C26.7261 23.6265 24.6273 23.2764 24.472 22.6195C24.445 22.5066 24.4529 22.3879 24.4664 22.3264C24.5069 22.1439 24.6262 21.9511 24.9717 21.9511C25.2958 21.9511 25.4837 22.1507 25.4837 22.4575C25.4837 22.5602 25.4837 22.8042 25.4837 22.8042H26.8657V22.4108C26.8657 21.1905 25.7831 21 24.9987 21C24.0162 21 23.2116 21.3285 23.0664 22.2431C23.0259 22.494 23.0214 22.7164 23.0799 22.9992C23.3207 24.142 25.2845 24.475 25.5692 25.2003Z" fill="#FAFAFA"/>
<path d="M30.0015 25.9566C30.396 25.9566 30.5188 25.6772 30.5463 25.534C30.5578 25.4707 30.5612 25.3873 30.56 25.311V21H31.9993V25.1784C32.0028 25.2852 31.9924 25.5059 31.9867 25.5599C31.8858 26.6479 31.0452 27 30.0004 27C28.9533 27 28.1127 26.6467 28.0129 25.5599C28.0084 25.5047 27.998 25.284 28.0003 25.1784V21H29.4384V25.3099C29.4384 25.385 29.4407 25.4707 29.4522 25.5329C29.4843 25.6749 29.6036 25.9566 30.0015 25.9566Z" fill="#FAFAFA"/>
<path d="M42.9932 25.9696C43.4002 25.9696 43.5431 25.7074 43.5692 25.5549C43.5794 25.489 43.5828 25.4093 43.5816 25.3365V24.5048H43.0045V23.6685H45V25.2072C44.9989 25.3146 44.9966 25.3943 44.9796 25.5849C44.8866 26.628 43.9977 27 43.0011 27C42.0023 27 41.1156 26.628 41.0204 25.5849C41.0045 25.3931 41.0023 25.3146 41 25.2072L41.0011 22.794C41.0011 22.6923 41.0136 22.5121 41.0249 22.4162C41.1497 21.3442 42.0023 21 43.0011 21C43.9989 21 44.873 21.3431 44.9762 22.4162C44.9943 22.5988 44.9887 22.794 44.9887 22.794V22.9858H43.5703V22.6646C43.5714 22.6658 43.568 22.5283 43.5522 22.4463C43.5283 22.3192 43.4206 22.0281 42.9909 22.0281C42.5805 22.0281 42.4615 22.303 42.4308 22.4463C42.4138 22.5214 42.407 22.6242 42.407 22.7166V25.3389C42.4059 25.4116 42.4104 25.4913 42.4218 25.5572C42.4444 25.7074 42.5862 25.9696 42.9932 25.9696Z" fill="#FAFAFA"/>
</svg>
