<svg width="20" height="13" viewBox="0 0 20 13" fill="none" xmlns="http://www.w3.org/2000/svg">
<path fill-rule="evenodd" clip-rule="evenodd" d="M9.15927 0.0528992C6.52542 0.380121 4.00791 1.80288 1.48791 4.38839C-0.416284 6.3421 -0.440271 6.59394 1.11582 8.2986C6.84961 14.58 13.1885 14.5667 18.9153 8.26129C20.4238 6.60029 20.4012 6.3432 18.581 4.46937C15.4485 1.24472 12.1211 -0.315028 9.15927 0.0528992ZM10.8636 1.30814C13.2707 1.62949 15.953 3.30338 18.2805 5.93682C18.8425 6.57268 18.8281 6.49403 18.4611 6.91986C14.1968 11.8673 9.70254 13.066 5.49099 10.3795C3.98837 9.42096 1.85293 7.50808 1.29184 6.61792L1.22491 6.51178L1.50542 6.17813C4.37387 2.76597 7.9283 0.916274 10.8636 1.30814ZM9.43229 2.22063C9.38938 2.22915 9.25775 2.2549 9.13977 2.27782C5.16695 3.04964 4.46288 8.59727 8.1062 10.4216C12.0571 12.4001 16.0199 7.70826 13.5051 4.0295C12.6387 2.76202 10.8044 1.94736 9.43229 2.22063ZM10.5569 3.47536C12.7839 3.90627 13.7952 6.4867 12.4748 8.36881C11.2926 10.0538 8.70301 10.0538 7.52088 8.36881C5.90847 6.07057 7.84421 2.95048 10.5569 3.47536Z" fill="#5A6C76"/>
</svg>
