<?xml version="1.0" encoding="UTF-8"?> <svg xmlns="http://www.w3.org/2000/svg" width="27" height="26" viewBox="0 0 27 26" fill="none"> <g clip-path="url(#clip0_511_12075)"> <path d="M13.255 25.9963C20.4337 25.9963 26.2531 20.1768 26.2531 12.9982C26.2531 5.81947 20.4337 0 13.255 0C6.07631 0 0.256836 5.81947 0.256836 12.9982C0.256836 20.1768 6.07631 25.9963 13.255 25.9963Z" fill="#1A1E21"></path> <path d="M18.8622 7.29138C18.8103 7.2919 18.759 7.30192 18.7107 7.32093L5.62761 12.2927C5.54546 12.3217 5.47433 12.3754 5.42401 12.4465C5.3737 12.5176 5.34668 12.6026 5.34668 12.6897C5.34668 12.7768 5.3737 12.8618 5.42401 12.9329C5.47433 13.0041 5.54546 13.0578 5.62761 13.0868L8.66014 14.11L10.4885 17.7704C10.5053 17.8032 10.5306 17.8309 10.5618 17.8504C10.5931 17.8699 10.629 17.8806 10.6658 17.8812C10.712 17.8802 10.7564 17.8633 10.7914 17.8332L12.5053 16.3816L10.5993 14.941L10.7471 16.8507L9.37303 14.0028L16.6976 9.60364L10.5993 14.941L15.3347 18.5387C15.4486 18.6248 15.5821 18.6812 15.7233 18.703C15.8644 18.7249 16.0087 18.7114 16.1433 18.6639C16.278 18.6163 16.3987 18.5361 16.4948 18.4305C16.5909 18.3249 16.6593 18.1971 16.694 18.0585L19.2537 7.81589C19.2692 7.75509 19.2708 7.6916 19.2586 7.63007C19.2464 7.56854 19.2206 7.51052 19.183 7.46025C19.1455 7.40998 19.0972 7.36873 19.0417 7.33951C18.9862 7.31029 18.9248 7.29385 18.8622 7.29138V7.29138Z" fill="url(#paint0_radial_511_12075)"></path> </g> <defs> <radialGradient id="paint0_radial_511_12075" cx="0" cy="0" r="1" gradientUnits="userSpaceOnUse" gradientTransform="translate(6.20946 7.29138) rotate(39.4402) scale(15.6481 10.6688)"> <stop stop-color="#FF9000"></stop> <stop offset="1" stop-color="#FFBF00"></stop> </radialGradient> <clipPath id="clip0_511_12075"> <rect width="26" height="26" fill="white" transform="translate(0.256836)"></rect> </clipPath> </defs> </svg> 