<svg width="15" height="12" viewBox="0 0 15 12" fill="none" xmlns="http://www.w3.org/2000/svg">
<path d="M13.6053 0.291504C13.5535 0.292026 13.5021 0.302041 13.4539 0.321054L0.370772 5.29278C0.288624 5.32178 0.217492 5.37554 0.167177 5.44665C0.116863 5.51777 0.0898438 5.60274 0.0898438 5.68986C0.0898438 5.77697 0.116863 5.86194 0.167177 5.93306C0.217492 6.00417 0.288624 6.05793 0.370772 6.08693L3.40331 7.11009L5.23169 10.7705C5.24843 10.8034 5.27376 10.831 5.30499 10.8505C5.33622 10.87 5.37217 10.8807 5.40899 10.8814C5.45515 10.8804 5.49953 10.8634 5.53458 10.8333L7.24846 9.38171L5.3425 7.94117L5.49025 9.85082L4.11619 7.00297L11.4408 2.60376L5.3425 7.94117L10.0778 11.5388C10.1918 11.6249 10.3253 11.6813 10.4664 11.7032C10.6075 11.725 10.7519 11.7115 10.8865 11.664C11.0211 11.6164 11.1419 11.5362 11.238 11.4306C11.3341 11.325 11.4025 11.1972 11.4371 11.0587L13.9969 0.81601C14.0123 0.755211 14.014 0.691726 14.0018 0.630196C13.9895 0.568665 13.9637 0.510644 13.9262 0.460372C13.8887 0.4101 13.8404 0.368849 13.7849 0.339632C13.7294 0.310416 13.668 0.293972 13.6053 0.291504Z" fill="url(#paint0_radial_601_851)"/>
<defs>
<radialGradient id="paint0_radial_601_851" cx="0" cy="0" r="1" gradientUnits="userSpaceOnUse" gradientTransform="translate(0.952626 0.291503) rotate(39.4402) scale(15.6481 10.6688)">
<stop stop-color="#FF9000"/>
<stop offset="1" stop-color="#FFBF00"/>
</radialGradient>
</defs>
</svg>
