<svg width="18" height="16" viewBox="0 0 18 16" fill="none" xmlns="http://www.w3.org/2000/svg">
<path d="M17.5218 2.66039C16.9664 2.90159 16.3819 3.06912 15.783 3.15872C16.0593 3.10997 16.4764 2.61705 16.6389 2.40039C16.9002 2.08008 17.097 1.7122 17.2185 1.31705C17.2185 1.28455 17.2185 1.24664 17.2185 1.22497C17.2041 1.2182 17.1883 1.2147 17.1724 1.2147C17.1565 1.2147 17.1408 1.2182 17.1264 1.22497C16.4749 1.57659 15.7814 1.84414 15.0626 2.02122C15.0371 2.02823 15.0101 2.02842 14.9844 2.02177C14.9588 2.01511 14.9353 2.00185 14.9164 1.9833C14.8624 1.91504 14.8026 1.85161 14.7376 1.79372C14.4336 1.54989 14.0937 1.3544 13.7301 1.21414C13.244 1.01837 12.7203 0.933255 12.1972 0.964968C11.6888 1.00283 11.1932 1.14285 10.7401 1.37664C10.286 1.61576 9.88441 1.94363 9.55929 2.3408C9.22429 2.75099 8.98386 3.23 8.85512 3.74372C8.74481 4.23111 8.73192 4.7355 8.81721 5.22788C8.81721 5.31455 8.81721 5.32538 8.74679 5.31455C5.90846 4.89205 3.55221 3.87372 1.64012 1.69622C1.55887 1.60414 1.51554 1.60414 1.44512 1.69622C0.610957 2.94747 1.01721 4.94622 2.05721 5.9483C2.19804 6.08372 2.34429 6.21372 2.49596 6.33288C2.01786 6.29858 1.55168 6.16775 1.12554 5.9483C1.04429 5.89955 1.00096 5.9483 0.99554 6.02414C0.979616 6.15908 0.979616 6.29544 0.99554 6.43039C1.07934 7.06935 1.33103 7.67468 1.72496 8.18469C2.11889 8.69471 2.64099 9.09118 3.23804 9.33372C3.38448 9.39612 3.53695 9.44331 3.69304 9.47455C3.25295 9.56569 2.80068 9.58217 2.35512 9.5233C2.25762 9.5233 2.21971 9.5558 2.25762 9.64788C2.48855 10.2504 2.86945 10.7841 3.36424 11.1983C3.85903 11.6125 4.45135 11.8936 5.08512 12.015C5.20971 12.015 5.33971 12.015 5.46971 12.0691H5.44262C5.12846 12.5512 4.02887 12.9141 3.51429 13.0929C2.57584 13.4272 1.5762 13.5547 0.583873 13.4666C0.42679 13.4666 0.39429 13.4666 0.350957 13.4666C0.307624 13.4666 0.350957 13.5316 0.39429 13.5696C0.594707 13.705 0.80054 13.8187 1.00637 13.9325C1.63006 14.2636 2.28742 14.5269 2.96721 14.7179C6.48804 15.6875 10.453 14.9725 13.0964 12.3508C15.1818 10.3087 15.8968 7.46497 15.8968 4.6158C15.8968 4.50747 16.0268 4.44247 16.108 4.38289C16.6316 3.97499 17.0932 3.49331 17.4785 2.95289C17.539 2.87388 17.5697 2.77605 17.5651 2.67664C17.576 2.61705 17.5814 2.62788 17.5218 2.66039Z" fill="url(#paint0_radial_601_854)"/>
<defs>
<radialGradient id="paint0_radial_601_854" cx="0" cy="0" r="1" gradientUnits="userSpaceOnUse" gradientTransform="translate(1.4015 0.958495) rotate(39.495) scale(19.3944 13.2279)">
<stop stop-color="#FDA428"/>
<stop offset="1" stop-color="#FFBF00"/>
</radialGradient>
</defs>
</svg>
