<svg width="21" height="12" viewBox="0 0 21 12" fill="none" xmlns="http://www.w3.org/2000/svg">
<path fill-rule="evenodd" clip-rule="evenodd" d="M19.7228 0.989601C19.8572 0.541506 19.7228 0.212158 19.0831 0.212158H16.968C16.4302 0.212158 16.1824 0.496636 16.048 0.810423C16.048 0.810423 14.9723 3.43206 13.4485 5.135C12.9556 5.62796 12.7315 5.78463 12.4626 5.78463C12.3281 5.78463 12.1336 5.62796 12.1336 5.17987V0.989601C12.1336 0.451767 11.9775 0.212158 11.5293 0.212158H8.20556C7.86957 0.212158 7.66743 0.461738 7.66743 0.698324C7.66743 1.20821 8.42916 1.32575 8.50772 2.75977V5.87452C8.50772 6.55739 8.38444 6.68127 8.11552 6.68127C7.39851 6.68127 5.65448 4.0477 4.6199 1.03447C4.41716 0.448745 4.21381 0.212158 3.67325 0.212158H1.55818C0.953869 0.212158 0.833008 0.496636 0.833008 0.810423C0.833008 1.37062 1.55017 4.14922 4.17181 7.82402C5.91977 10.3334 8.38202 11.694 10.6228 11.694C11.9674 11.694 12.1336 11.3918 12.1336 10.8714V8.97462C12.1336 8.37031 12.2609 8.24975 12.6865 8.24975C13.0004 8.24975 13.5381 8.40657 14.7931 9.61655C16.2271 11.0504 16.4634 11.694 17.2702 11.694H19.3853C19.9896 11.694 20.2917 11.3918 20.1174 10.7955C19.9267 10.2012 19.242 9.33917 18.3335 8.31698C17.8405 7.73428 17.101 7.10686 16.8771 6.79322C16.5633 6.38984 16.6529 6.21067 16.8771 5.85231C16.8771 5.85231 19.4538 2.22224 19.7228 0.989752V0.989601Z" fill="white"/>
</svg>
