<svg width="20" height="11" viewBox="0 0 20 11" fill="none" xmlns="http://www.w3.org/2000/svg">
<path fill-rule="evenodd" clip-rule="evenodd" d="M19.1223 0.965828C19.2534 0.563659 19.1223 0.268066 18.4988 0.268066H16.4373C15.9131 0.268066 15.6716 0.523388 15.5406 0.805014C15.5406 0.805014 14.4921 3.15796 13.007 4.68636C12.5265 5.1288 12.3081 5.26941 12.046 5.26941C11.915 5.26941 11.7253 5.1288 11.7253 4.72663V0.965828C11.7253 0.483117 11.5732 0.268066 11.1363 0.268066H7.89678C7.56929 0.268066 7.37227 0.492066 7.37227 0.704404C7.37227 1.16203 8.11471 1.26752 8.19128 2.55457V5.35009C8.19128 5.96297 8.07112 6.07415 7.80902 6.07415C7.11016 6.07415 5.4103 3.7105 4.40193 1.0061C4.20432 0.480405 4.00612 0.268066 3.47925 0.268066H1.41774C0.828738 0.268066 0.710938 0.523388 0.710938 0.805014C0.710938 1.30779 1.40994 3.80162 3.96518 7.09978C5.66887 9.35197 8.06877 10.5731 10.2528 10.5731C11.5633 10.5731 11.7253 10.3019 11.7253 9.83482V8.13245C11.7253 7.59008 11.8494 7.48188 12.2642 7.48188C12.5702 7.48188 13.0943 7.62262 14.3175 8.70858C15.7152 9.9955 15.9455 10.5731 16.7318 10.5731H18.7933C19.3823 10.5731 19.6768 10.3019 19.5069 9.76675C19.3211 9.23333 18.6537 8.45964 17.7682 7.54222C17.2877 7.01923 16.5669 6.45612 16.3487 6.17463C16.0428 5.81259 16.1302 5.65178 16.3487 5.33015C16.3487 5.33015 18.8602 2.07213 19.1223 0.965963V0.965828Z" fill="url(#paint0_radial_601_844)"/>
<defs>
<radialGradient id="paint0_radial_601_844" cx="0" cy="0" r="1" gradientUnits="userSpaceOnUse" gradientTransform="translate(1.8789 0.268066) rotate(28.7331) scale(18.6567 10.9291)">
<stop stop-color="#FF9000"/>
<stop offset="1" stop-color="#FFBF00"/>
</radialGradient>
</defs>
</svg>
