<?xml version="1.0" encoding="UTF-8"?> <svg xmlns="http://www.w3.org/2000/svg" width="27" height="26" viewBox="0 0 27 26" fill="none"> <g clip-path="url(#clip0_511_12073)"> <rect x="0.746094" width="26" height="26" rx="13" fill="#1A1E21"></rect> <path fill-rule="evenodd" clip-rule="evenodd" d="M22.4114 8.69776C22.5424 8.29559 22.4114 8 21.7879 8H19.7264C19.2022 8 18.9607 8.25532 18.8296 8.53695C18.8296 8.53695 17.7812 10.8899 16.296 12.4183C15.8156 12.8607 15.5972 13.0013 15.3351 13.0013C15.204 13.0013 15.0144 12.8607 15.0144 12.4586V8.69776C15.0144 8.21505 14.8623 8 14.4254 8H11.1858C10.8584 8 10.6613 8.224 10.6613 8.43634C10.6613 8.89396 11.4038 8.99945 11.4803 10.2865V13.082C11.4803 13.6949 11.3602 13.8061 11.0981 13.8061C10.3992 13.8061 8.69936 11.4424 7.69099 8.73803C7.49338 8.21234 7.29518 8 6.76832 8H4.7068C4.1178 8 4 8.25532 4 8.53695C4 9.03973 4.699 11.5335 7.25424 14.8317C8.95794 17.0839 11.3578 18.3051 13.5419 18.3051C14.8524 18.3051 15.0144 18.0339 15.0144 17.5668V15.8644C15.0144 15.322 15.1385 15.2138 15.5533 15.2138C15.8593 15.2138 16.3834 15.3546 17.6066 16.4405C19.0043 17.7274 19.2346 18.3051 20.0209 18.3051H22.0824C22.6714 18.3051 22.9659 18.0339 22.796 17.4987C22.6102 16.9653 21.9428 16.1916 21.0572 15.2741C20.5768 14.7512 19.856 14.188 19.6377 13.9066C19.3319 13.5445 19.4192 13.3837 19.6377 13.0621C19.6377 13.0621 22.1493 9.80406 22.4114 8.6979V8.69776Z" fill="url(#paint0_radial_511_12073)"></path> </g> <defs> <radialGradient id="paint0_radial_511_12073" cx="0" cy="0" r="1" gradientUnits="userSpaceOnUse" gradientTransform="translate(5.16796 8) rotate(28.7331) scale(18.6567 10.9291)"> <stop stop-color="#FDA428"></stop> <stop offset="1" stop-color="#FFBF00"></stop> </radialGradient> <clipPath id="clip0_511_12073"> <rect width="27" height="26" fill="white"></rect> </clipPath> </defs> </svg> 