<svg width="16" height="12" viewBox="0 0 16 12" fill="none" xmlns="http://www.w3.org/2000/svg">
<path d="M15.7797 4.02584C15.7797 3.14162 15.4285 2.29362 14.8033 1.66838C14.178 1.04315 13.33 0.691895 12.4458 0.691895H3.78707C2.90285 0.691895 2.05485 1.04315 1.42961 1.66838C0.804379 2.29362 0.453125 3.14162 0.453125 4.02584V8.08373C0.453125 8.96794 0.804379 9.81594 1.42961 10.4412C2.05485 11.0664 2.90285 11.4177 3.78707 11.4177H12.4458C13.33 11.4177 14.178 11.0664 14.8033 10.4412C15.4285 9.81594 15.7797 8.96794 15.7797 8.08373V4.02584ZM10.3168 6.25958L6.86382 8.16469C6.71618 8.24566 6.58282 8.13612 6.58282 7.96466V4.0687C6.58282 3.89724 6.72094 3.7877 6.86859 3.87343L10.3454 5.85951C10.3814 5.88065 10.4107 5.91141 10.4301 5.94831C10.4495 5.98522 10.4582 6.02682 10.4552 6.06841C10.4522 6.11 10.4377 6.14993 10.4133 6.18371C10.3888 6.21749 10.3554 6.24377 10.3168 6.25958Z" fill="url(#paint0_radial_601_857)"/>
<defs>
<radialGradient id="paint0_radial_601_857" cx="0" cy="0" r="1" gradientUnits="userSpaceOnUse" gradientTransform="translate(1.40309 0.691894) rotate(35.052) scale(16.254 10.6198)">
<stop stop-color="#FF9000"/>
<stop offset="1" stop-color="#FFBF00"/>
</radialGradient>
</defs>
</svg>
