<?xml version="1.0" encoding="UTF-8"?> <svg xmlns="http://www.w3.org/2000/svg" width="27" height="26" viewBox="0 0 27 26" fill="none"> <g clip-path="url(#clip0_511_12077)"> <path d="M13.2546 26C10.683 26 8.16908 25.2374 6.03085 23.8087C3.89262 22.38 2.22607 20.3493 1.24195 17.9734C0.257831 15.5975 0.000340488 12.9832 0.50204 10.461C1.00374 7.93877 2.2421 5.62197 4.06051 3.80355C5.87893 1.98514 8.19573 0.746782 10.7179 0.245082C13.2402 -0.256618 15.8545 0.000872985 18.2304 0.984992C20.6063 1.96911 22.6369 3.63566 24.0657 5.77389C25.4944 7.91212 26.257 10.426 26.257 12.9976C26.2532 16.4449 24.8821 19.7499 22.4445 22.1875C20.0069 24.6251 16.7019 25.9962 13.2546 26V26Z" fill="#1A1E21"></path> <path d="M21.0366 11.0258C21.0366 10.1416 20.6853 9.29362 20.0601 8.66838C19.4349 8.04315 18.5868 7.69189 17.7026 7.69189H9.04391C8.15969 7.69189 7.31169 8.04315 6.68645 8.66838C6.06121 9.29362 5.70996 10.1416 5.70996 11.0258V15.0837C5.70996 15.9679 6.06121 16.8159 6.68645 17.4412C7.31169 18.0664 8.15969 18.4177 9.04391 18.4177H17.7026C18.5868 18.4177 19.4349 18.0664 20.0601 17.4412C20.6853 16.8159 21.0366 15.9679 21.0366 15.0837V11.0258ZM15.5737 13.2596L12.1207 15.1647C11.973 15.2457 11.8397 15.1361 11.8397 14.9647V11.0687C11.8397 10.8972 11.9778 10.7877 12.1254 10.8734L15.6022 12.8595C15.6382 12.8806 15.6675 12.9114 15.6869 12.9483C15.7063 12.9852 15.715 13.0268 15.712 13.0684C15.7091 13.11 15.6945 13.1499 15.6701 13.1837C15.6456 13.2175 15.6123 13.2438 15.5737 13.2596V13.2596Z" fill="url(#paint0_radial_511_12077)"></path> </g> <defs> <radialGradient id="paint0_radial_511_12077" cx="0" cy="0" r="1" gradientUnits="userSpaceOnUse" gradientTransform="translate(6.65993 7.69189) rotate(35.052) scale(16.254 10.6198)"> <stop stop-color="#FF9000"></stop> <stop offset="1" stop-color="#FFBF00"></stop> </radialGradient> <clipPath id="clip0_511_12077"> <rect width="26" height="26" fill="white" transform="translate(0.256836)"></rect> </clipPath> </defs> </svg> 